<svg width="175" height="50" viewBox="0 0 175 50" fill="none" xmlns="http://www.w3.org/2000/svg">
<path d="M174.385 44.8643C174.385 47.5748 172.142 49.7703 169.368 49.7703H5.20648C2.43402 49.7703 0.183594 47.5748 0.183594 44.8643V5.74053C0.183594 3.03134 2.43402 0.828125 5.20648 0.828125H169.367C172.142 0.828125 174.383 3.03134 174.383 5.74053L174.385 44.8643Z" fill="black"/>
<path d="M38.1735 25.0296C38.1371 21.0861 41.4853 19.1676 41.6384 19.0783C39.7422 16.3828 36.8031 16.0145 35.7703 15.9851C33.3019 15.7319 30.9075 17.4253 29.65 17.4253C28.3675 17.4253 26.4312 16.0096 24.3442 16.0512C21.6587 16.0916 19.1463 17.6076 17.7684 19.9617C14.9247 24.7617 17.0456 31.8155 19.77 35.6954C21.1329 37.5956 22.7254 39.7172 24.8098 39.6426C26.849 39.5606 27.6108 38.375 30.0717 38.375C32.51 38.375 33.2253 39.6426 35.3512 39.5948C37.5398 39.5606 38.9177 37.6861 40.2329 35.7688C41.8078 33.5909 42.4403 31.446 42.4654 31.3359C42.4139 31.3187 38.2149 29.7562 38.1735 25.0296Z" fill="white"/>
<path d="M34.1577 13.4328C35.2546 12.0955 36.005 10.276 35.7967 8.42969C34.2092 8.49821 32.2239 9.5003 31.0807 10.8083C30.0692 11.9609 29.1656 13.85 29.3991 15.6266C31.1823 15.7563 33.0133 14.7493 34.1577 13.4328Z" fill="white"/>
<path d="M67.685 39.3768H64.8351L63.274 34.5939H57.8477L56.3606 39.3768H53.5859L58.962 23.0938H62.2826L67.685 39.3768ZM62.8034 32.5873L61.3916 28.3355C61.2423 27.9011 60.9624 26.8782 60.5495 25.268H60.4993C60.3349 25.9605 60.0701 26.9834 59.7062 28.3355L58.3195 32.5873H62.8034Z" fill="white"/>
<path d="M81.5109 33.3579C81.5109 35.3547 80.9574 36.9331 79.8506 38.0918C78.8592 39.1233 77.6281 39.6384 76.1586 39.6384C74.5724 39.6384 73.4329 39.0829 72.7389 37.9719H72.6887V44.157H70.0132V31.4969C70.0132 30.2415 69.9793 28.9531 69.9141 27.6317H72.2671L72.4164 29.4927H72.4666C73.3588 28.0905 74.7129 27.3906 76.53 27.3906C77.9506 27.3906 79.1365 27.9376 80.0853 29.0326C81.0365 30.1289 81.5109 31.5703 81.5109 33.3579ZM78.7851 33.4533C78.7851 32.3105 78.5216 31.3684 77.992 30.6269C77.4135 29.8536 76.6367 29.467 75.6629 29.467C75.0028 29.467 74.4029 29.6823 73.8671 30.1069C73.33 30.5352 72.9786 31.0943 72.8142 31.7869C72.7314 32.1099 72.69 32.3742 72.69 32.5822V34.5399C72.69 35.3939 72.9585 36.1146 73.4956 36.7031C74.0327 37.2916 74.7305 37.5853 75.5888 37.5853C76.5966 37.5853 77.3809 37.206 77.9418 36.4498C78.504 35.6924 78.7851 34.694 78.7851 33.4533Z" fill="white"/>
<path d="M95.3612 33.3579C95.3612 35.3547 94.8077 36.9331 93.6996 38.0918C92.7095 39.1233 91.4784 39.6384 90.0089 39.6384C88.4227 39.6384 87.2832 39.0829 86.5905 37.9719H86.5403V44.157H83.8648V31.4969C83.8648 30.2415 83.8309 28.9531 83.7656 27.6317H86.1186L86.268 29.4927H86.3181C87.2091 28.0905 88.5632 27.3906 90.3816 27.3906C91.8009 27.3906 92.9868 27.9376 93.9381 29.0326C94.8855 30.1289 95.3612 31.5703 95.3612 33.3579ZM92.6355 33.4533C92.6355 32.3105 92.3707 31.3684 91.8411 30.6269C91.2626 29.8536 90.4883 29.467 89.5132 29.467C88.8519 29.467 88.2533 29.6823 87.7161 30.1069C87.179 30.5352 86.8289 31.0943 86.6645 31.7869C86.5829 32.1099 86.5403 32.3742 86.5403 32.5822V34.5399C86.5403 35.3939 86.8088 36.1146 87.3434 36.7031C87.8805 37.2904 88.5783 37.5853 89.4392 37.5853C90.4469 37.5853 91.2312 37.206 91.7921 36.4498C92.3544 35.6924 92.6355 34.694 92.6355 33.4533Z" fill="white"/>
<path d="M110.849 34.8069C110.849 36.192 110.356 37.3189 109.366 38.1888C108.278 39.1395 106.763 39.6143 104.817 39.6143C103.019 39.6143 101.579 39.2766 100.488 38.5999L101.108 36.4257C102.283 37.1182 103.572 37.4657 104.976 37.4657C105.984 37.4657 106.768 37.243 107.331 36.8001C107.892 36.3572 108.172 35.7625 108.172 35.021C108.172 34.3603 107.941 33.8036 107.478 33.3521C107.018 32.9006 106.248 32.4809 105.174 32.0931C102.25 31.0298 100.789 29.4722 100.789 27.424C100.789 26.0854 101.301 24.9879 102.327 24.1338C103.348 23.2786 104.711 22.8516 106.415 22.8516C107.935 22.8516 109.197 23.1097 110.205 23.6248L109.536 25.7514C108.595 25.2522 107.531 25.0026 106.34 25.0026C105.399 25.0026 104.663 25.2289 104.136 25.6792C103.691 26.0817 103.467 26.5724 103.467 27.1536C103.467 27.7972 103.722 28.3294 104.234 28.7479C104.68 29.1345 105.489 29.553 106.664 30.0045C108.101 30.5685 109.156 31.228 109.835 31.9842C110.511 32.7379 110.849 33.6812 110.849 34.8069Z" fill="white"/>
<path d="M119.693 29.5863H116.744V35.2869C116.744 36.7368 117.264 37.4611 118.305 37.4611C118.783 37.4611 119.18 37.4208 119.494 37.34L119.568 39.3209C119.041 39.513 118.347 39.6097 117.487 39.6097C116.43 39.6097 115.605 39.2952 115.009 38.6676C114.415 38.0386 114.116 36.9839 114.116 35.5022V29.5839H112.359V27.6262H114.116V25.4764L116.744 24.7031V27.6262H119.693V29.5863Z" fill="white"/>
<path d="M133.002 33.4044C133.002 35.2091 132.473 36.6909 131.416 37.8496C130.308 39.0425 128.837 39.6372 127.004 39.6372C125.237 39.6372 123.83 39.0658 122.781 37.923C121.732 36.7802 121.207 35.3376 121.207 33.5989C121.207 31.7795 121.747 30.2892 122.83 29.1305C123.91 27.9706 125.368 27.3906 127.202 27.3906C128.969 27.3906 130.391 27.962 131.464 29.106C132.49 30.2158 133.002 31.6486 133.002 33.4044ZM130.226 33.4888C130.226 32.406 129.989 31.4773 129.508 30.7028C128.947 29.7655 128.146 29.2981 127.106 29.2981C126.031 29.2981 125.214 29.7668 124.653 30.7028C124.172 31.4785 123.935 32.4219 123.935 33.5378C123.935 34.6206 124.172 35.5493 124.653 36.3226C125.232 37.2598 126.04 37.7272 127.083 37.7272C128.104 37.7272 128.906 37.25 129.485 36.2981C129.978 35.5089 130.226 34.5704 130.226 33.4888Z" fill="white"/>
<path d="M141.697 29.9258C141.432 29.8781 141.15 29.8536 140.853 29.8536C139.912 29.8536 139.184 30.1999 138.672 30.8937C138.227 31.5054 138.003 32.2787 138.003 33.2123V39.3729H135.329L135.354 31.3292C135.354 29.976 135.32 28.7439 135.254 27.6329H137.584L137.682 29.8793H137.756C138.039 29.1073 138.484 28.4857 139.094 28.0195C139.69 27.5999 140.334 27.3906 141.028 27.3906C141.275 27.3906 141.498 27.4078 141.697 27.4383V29.9258Z" fill="white"/>
<path d="M153.659 32.9454C153.659 33.4128 153.628 33.8068 153.561 34.1285H145.535C145.566 35.2885 145.954 36.1756 146.699 36.7873C147.376 37.3343 148.25 37.6083 149.325 37.6083C150.513 37.6083 151.597 37.4236 152.572 37.0528L152.991 38.8637C151.852 39.3482 150.507 39.5893 148.954 39.5893C147.087 39.5893 145.621 39.0534 144.555 37.9827C143.49 36.9121 142.957 35.4745 142.957 33.6709C142.957 31.9005 143.453 30.4261 144.445 29.2502C145.484 27.9949 146.889 27.3672 148.656 27.3672C150.391 27.3672 151.705 27.9949 152.597 29.2502C153.304 30.2474 153.659 31.4808 153.659 32.9454ZM151.108 32.2687C151.125 31.4955 150.951 30.8274 150.588 30.2633C150.125 29.5378 149.414 29.1756 148.456 29.1756C147.581 29.1756 146.87 29.5292 146.327 30.2389C145.881 30.8029 145.616 31.4796 145.535 32.2675H151.108V32.2687Z" fill="white"/>
<path d="M61.9198 13.081C61.9198 14.5212 61.4768 15.6052 60.5921 16.3333C59.7726 17.005 58.608 17.3415 57.0996 17.3415C56.3517 17.3415 55.7116 17.3096 55.1758 17.246V9.37734C55.8748 9.26722 56.6277 9.21094 57.4409 9.21094C58.8778 9.21094 59.9608 9.5156 60.6912 10.1249C61.5094 10.8138 61.9198 11.7988 61.9198 13.081ZM60.5331 13.1165C60.5331 12.183 60.2796 11.4672 59.7726 10.968C59.2656 10.47 58.5252 10.2204 57.5501 10.2204C57.136 10.2204 56.7833 10.2473 56.4909 10.3036V16.2855C56.6528 16.31 56.949 16.321 57.3794 16.321C58.3859 16.321 59.1627 16.0482 59.7098 15.5025C60.257 14.9568 60.5331 14.1614 60.5331 13.1165Z" fill="white"/>
<path d="M69.2745 14.3365C69.2745 15.2235 69.0147 15.9503 68.4952 16.5205C67.9505 17.1066 67.2289 17.399 66.3279 17.399C65.4595 17.399 64.768 17.1188 64.2523 16.556C63.7377 15.9944 63.4805 15.286 63.4805 14.4319C63.4805 13.5387 63.7453 12.8058 64.2773 12.2369C64.8094 11.6679 65.5247 11.3828 66.4258 11.3828C67.2942 11.3828 67.9919 11.663 68.5203 12.2246C69.0222 12.7703 69.2745 13.4751 69.2745 14.3365ZM67.9104 14.3781C67.9104 13.8458 67.7924 13.3894 67.5577 13.0089C67.2816 12.5489 66.8889 12.3188 66.3781 12.3188C65.8498 12.3188 65.4482 12.5489 65.1721 13.0089C64.9362 13.3894 64.8195 13.8532 64.8195 14.4013C64.8195 14.9336 64.9374 15.39 65.1721 15.7705C65.457 16.2305 65.8535 16.4606 66.3655 16.4606C66.8675 16.4606 67.2616 16.2269 67.5452 15.7582C67.7886 15.3704 67.9104 14.9103 67.9104 14.3781Z" fill="white"/>
<path d="M79.1297 11.5L77.2787 17.2678H76.074L75.3072 14.7632C75.1127 14.138 74.9546 13.5164 74.8316 12.8997H74.8078C74.6936 13.5335 74.5355 14.1539 74.3322 14.7632L73.5177 17.2678H72.2992L70.5586 11.5H71.9101L72.579 14.242C72.7409 14.8905 72.8739 15.5084 72.9806 16.0932H73.0044C73.1023 15.6111 73.2642 14.9969 73.4926 14.2542L74.3322 11.5012H75.4039L76.2083 14.1955C76.4028 14.8525 76.5609 15.4851 76.6826 16.0944H76.719C76.8081 15.501 76.9424 14.8684 77.1206 14.1955L77.8384 11.5012H79.1297V11.5Z" fill="white"/>
<path d="M85.951 17.264H84.6358V13.9604C84.6358 12.9424 84.2393 12.4334 83.4436 12.4334C83.0533 12.4334 82.7384 12.5729 82.4937 12.8531C82.2515 13.1332 82.1285 13.4636 82.1285 13.8417V17.2627H80.8133V13.1443C80.8133 12.6377 80.797 12.0883 80.7656 11.4937H81.9214L81.9829 12.3954H82.0193C82.1724 12.1153 82.4008 11.884 82.7007 11.6992C83.0571 11.4839 83.4562 11.375 83.8929 11.375C84.4451 11.375 84.9044 11.5487 85.2695 11.8975C85.7238 12.3245 85.951 12.962 85.951 13.8087V17.264Z" fill="white"/>
<path d="M89.5756 17.2659H88.2617V8.85156H89.5756V17.2659Z" fill="white"/>
<path d="M97.3174 14.3365C97.3174 15.2235 97.0577 15.9503 96.5381 16.5205C95.9935 17.1066 95.2707 17.399 94.3709 17.399C93.5012 17.399 92.8097 17.1188 92.2952 16.556C91.7807 15.9944 91.5234 15.286 91.5234 14.4319C91.5234 13.5387 91.7882 12.8058 92.3203 12.2369C92.8524 11.6679 93.5677 11.3828 94.4675 11.3828C95.3372 11.3828 96.0336 11.663 96.5632 12.2246C97.0652 12.7703 97.3174 13.4751 97.3174 14.3365ZM95.9521 14.3781C95.9521 13.8458 95.8341 13.3894 95.5994 13.0089C95.3246 12.5489 94.9306 12.3188 94.4211 12.3188C93.8915 12.3188 93.4899 12.5489 93.2151 13.0089C92.9792 13.3894 92.8624 13.8532 92.8624 14.4013C92.8624 14.9336 92.9804 15.39 93.2151 15.7705C93.4999 16.2305 93.8965 16.4606 94.4085 16.4606C94.9105 16.4606 95.3033 16.2269 95.5869 15.7582C95.8316 15.3704 95.9521 14.9103 95.9521 14.3781Z" fill="white"/>
<path d="M103.685 17.2681H102.504L102.406 16.6037H102.37C101.965 17.1335 101.389 17.399 100.641 17.399C100.083 17.399 99.6313 17.2241 99.2912 16.8766C98.9825 16.5609 98.8281 16.1681 98.8281 15.702C98.8281 14.9972 99.1293 14.4601 99.7354 14.0881C100.34 13.7161 101.191 13.5338 102.287 13.5424V13.4347C102.287 12.6749 101.878 12.2956 101.058 12.2956C100.475 12.2956 99.9601 12.4387 99.5158 12.7226L99.2485 11.8808C99.7982 11.5492 100.477 11.3828 101.278 11.3828C102.824 11.3828 103.599 12.1781 103.599 13.7687V15.8928C103.599 16.4691 103.628 16.928 103.685 17.2681ZM102.319 15.2859V14.3964C100.869 14.372 100.143 14.7598 100.143 15.5588C100.143 15.8598 100.226 16.0849 100.396 16.2354C100.565 16.3859 100.781 16.4606 101.038 16.4606C101.327 16.4606 101.596 16.3712 101.842 16.1938C102.09 16.0152 102.242 15.7888 102.298 15.5111C102.312 15.4487 102.319 15.3728 102.319 15.2859Z" fill="white"/>
<path d="M111.159 17.2659H109.992L109.93 16.3397H109.894C109.521 17.0445 108.886 17.3969 107.994 17.3969C107.281 17.3969 106.688 17.124 106.217 16.5783C105.746 16.0326 105.512 15.3242 105.512 14.4542C105.512 13.5206 105.766 12.7645 106.278 12.187C106.774 11.6486 107.382 11.3794 108.104 11.3794C108.899 11.3794 109.455 11.64 109.771 12.1625H109.796V8.85156H111.112V15.712C111.112 16.2736 111.128 16.7912 111.159 17.2659ZM109.796 14.8335V13.8718C109.796 13.7054 109.783 13.5708 109.76 13.468C109.686 13.1597 109.526 12.9003 109.284 12.6911C109.039 12.4818 108.744 12.3766 108.404 12.3766C107.914 12.3766 107.53 12.5663 107.247 12.9468C106.967 13.3273 106.826 13.8131 106.826 14.4065C106.826 14.9767 106.96 15.4392 107.23 15.7952C107.515 16.1745 107.899 16.3642 108.379 16.3642C108.811 16.3642 109.156 16.2063 109.418 15.8894C109.672 15.597 109.796 15.2446 109.796 14.8335Z" fill="white"/>
<path d="M122.403 14.3365C122.403 15.2235 122.144 15.9503 121.624 16.5205C121.079 17.1066 120.359 17.399 119.457 17.399C118.59 17.399 117.898 17.1188 117.381 16.556C116.867 15.9944 116.609 15.286 116.609 14.4319C116.609 13.5387 116.874 12.8058 117.406 12.2369C117.938 11.6679 118.654 11.3828 119.556 11.3828C120.423 11.3828 121.122 11.663 121.649 12.2246C122.151 12.7703 122.403 13.4751 122.403 14.3365ZM121.041 14.3781C121.041 13.8458 120.923 13.3894 120.688 13.0089C120.411 12.5489 120.019 12.3188 119.507 12.3188C118.98 12.3188 118.578 12.5489 118.301 13.0089C118.065 13.3894 117.948 13.8532 117.948 14.4013C117.948 14.9336 118.066 15.39 118.301 15.7705C118.586 16.2305 118.982 16.4606 119.494 16.4606C119.996 16.4606 120.392 16.2269 120.675 15.7582C120.918 15.3704 121.041 14.9103 121.041 14.3781Z" fill="white"/>
<path d="M129.477 17.264H128.163V13.9604C128.163 12.9424 127.767 12.4334 126.97 12.4334C126.579 12.4334 126.264 12.5729 126.021 12.8531C125.778 13.1332 125.656 13.4636 125.656 13.8417V17.2627H124.339V13.1443C124.339 12.6377 124.324 12.0883 124.293 11.4937H125.447L125.509 12.3954H125.545C125.7 12.1153 125.928 11.884 126.227 11.6992C126.584 11.4839 126.982 11.375 127.42 11.375C127.971 11.375 128.43 11.5487 128.796 11.8975C129.251 12.3245 129.477 12.962 129.477 13.8087V17.264Z" fill="white"/>
<path d="M138.326 12.4594H136.877V15.2614C136.877 15.9735 137.135 16.3295 137.644 16.3295C137.88 16.3295 138.076 16.31 138.23 16.2696L138.264 17.2423C138.004 17.3378 137.663 17.3855 137.243 17.3855C136.723 17.3855 136.319 17.2313 136.027 16.923C135.733 16.6146 135.587 16.0958 135.587 15.3678V12.4594H134.723V11.499H135.587V10.4418L136.876 10.0625V11.4977H138.324V12.4594H138.326Z" fill="white"/>
<path d="M145.29 17.2659H143.974V13.9868C143.974 12.9529 143.577 12.4354 142.783 12.4354C142.173 12.4354 141.756 12.7351 141.528 13.3347C141.489 13.4607 141.466 13.6149 141.466 13.7959V17.2647H140.152V8.85156H141.466V12.3277H141.491C141.905 11.6951 142.499 11.3794 143.268 11.3794C143.813 11.3794 144.264 11.5532 144.621 11.9019C145.067 12.3362 145.29 12.9823 145.29 13.8363V17.2659Z" fill="white"/>
<path d="M152.47 14.1067C152.47 14.3368 152.453 14.5301 152.421 14.6879H148.477C148.495 15.2581 148.683 15.6925 149.048 15.9934C149.382 16.2626 149.812 16.3972 150.339 16.3972C150.923 16.3972 151.455 16.3067 151.934 16.1244L152.14 17.0151C151.579 17.2525 150.919 17.3712 150.155 17.3712C149.239 17.3712 148.517 17.1081 147.995 16.582C147.471 16.0558 147.211 15.3499 147.211 14.464C147.211 13.5941 147.453 12.8697 147.941 12.2922C148.451 11.6755 149.14 11.3672 150.009 11.3672C150.86 11.3672 151.507 11.6755 151.943 12.2922C152.296 12.7816 152.47 13.3873 152.47 14.1067ZM151.215 13.7751C151.225 13.3946 151.139 13.0667 150.961 12.7902C150.732 12.4341 150.385 12.2555 149.914 12.2555C149.485 12.2555 149.135 12.4292 148.867 12.7779C148.649 13.0557 148.52 13.3873 148.477 13.7751H151.215Z" fill="white"/>
</svg>
