<svg width="65" height="65" viewBox="0 0 65 65" fill="none" xmlns="http://www.w3.org/2000/svg">
<path d="M51.4583 5.41406H24.375C21.3877 5.41406 18.9583 7.84344 18.9583 10.8307V27.0807H13.5417C10.5544 27.0807 8.125 29.5101 8.125 32.4974V56.8724C8.125 57.5907 8.41034 58.2796 8.91825 58.7875C9.42616 59.2954 10.115 59.5807 10.8333 59.5807H54.1667C54.885 59.5807 55.5738 59.2954 56.0817 58.7875C56.5897 58.2796 56.875 57.5907 56.875 56.8724V10.8307C56.875 7.84344 54.4456 5.41406 51.4583 5.41406ZM13.5417 32.4974H29.7917V54.1641H13.5417V32.4974ZM51.4583 54.1641H35.2083V32.4974C35.2083 29.5101 32.779 27.0807 29.7917 27.0807H24.375V10.8307H51.4583V54.1641Z" fill="#BE111D"/>
<path d="M29.7904 16.25H35.207V21.6667H29.7904V16.25ZM40.6237 16.25H46.0404V21.6667H40.6237V16.25ZM40.6237 27.1673H46.0404V32.5H40.6237V27.1673ZM40.6237 37.9167H46.0404V43.3333H40.6237V37.9167ZM18.957 37.9194H24.3737V43.336H18.957V37.9194Z" fill="#BE111D"/>
</svg>
