<svg width="65" height="65" viewBox="0 0 65 65" fill="none" xmlns="http://www.w3.org/2000/svg">
<g clip-path="url(#clip0_1612_5497)">
<path d="M55.9718 14.4453H41.5273V18.0564H55.9718V55.9731H41.5273V59.5842H59.5829V18.0564C59.5829 17.0987 59.2024 16.1802 58.5252 15.503C57.848 14.8258 56.9295 14.4453 55.9718 14.4453Z" fill="#BE111D"/>
<path d="M35.8949 5.41406H11.0504C10.0352 5.41406 9.06163 5.81734 8.34379 6.53519C7.62594 7.25304 7.22266 8.22665 7.22266 9.24184V59.5807H39.7227V9.24184C39.7227 8.22665 39.3194 7.25304 38.6015 6.53519C37.8837 5.81734 36.9101 5.41406 35.8949 5.41406ZM36.1115 55.9696H30.6949V50.553H16.2504V55.9696H10.8338V9.24184C10.8338 9.21339 10.8394 9.18521 10.8503 9.15893C10.8611 9.13264 10.8771 9.10875 10.8972 9.08863C10.9173 9.06851 10.9412 9.05255 10.9675 9.04167C10.9938 9.03078 11.022 9.02517 11.0504 9.02517H35.8949C35.9233 9.02517 35.9515 9.03078 35.9778 9.04167C36.0041 9.05255 36.028 9.06851 36.0481 9.08863C36.0682 9.10875 36.0842 9.13264 36.0951 9.15893C36.1059 9.18521 36.1115 9.21339 36.1115 9.24184V55.9696Z" fill="#BE111D"/>
<path d="M14.4453 14.4453H18.0564V18.0564H14.4453V14.4453Z" fill="#BE111D"/>
<path d="M21.668 14.4453H25.2791V18.0564H21.668V14.4453Z" fill="#BE111D"/>
<path d="M28.8906 14.4453H32.5017V18.0564H28.8906V14.4453Z" fill="#BE111D"/>
<path d="M14.4453 23.4688H18.0564V27.0799H14.4453V23.4688Z" fill="#BE111D"/>
<path d="M21.668 23.4688H25.2791V27.0799H21.668V23.4688Z" fill="#BE111D"/>
<path d="M28.8906 23.4688H32.5017V27.0799H28.8906V23.4688Z" fill="#BE111D"/>
<path d="M14.4453 32.5H18.0564V36.1111H14.4453V32.5Z" fill="#BE111D"/>
<path d="M21.668 32.5H25.2791V36.1111H21.668V32.5Z" fill="#BE111D"/>
<path d="M28.8906 32.5H32.5017V36.1111H28.8906V32.5Z" fill="#BE111D"/>
<path d="M14.4453 41.5312H18.0564V45.1424H14.4453V41.5312Z" fill="#BE111D"/>
<path d="M21.668 41.5312H25.2791V45.1424H21.668V41.5312Z" fill="#BE111D"/>
<path d="M28.8906 41.5312H32.5017V45.1424H28.8906V41.5312Z" fill="#BE111D"/>
<path d="M41.5273 23.4688H45.1385V27.0799H41.5273V23.4688Z" fill="#BE111D"/>
<path d="M48.75 23.4688H52.3611V27.0799H48.75V23.4688Z" fill="#BE111D"/>
<path d="M41.5273 32.5H45.1385V36.1111H41.5273V32.5Z" fill="#BE111D"/>
<path d="M48.75 32.5H52.3611V36.1111H48.75V32.5Z" fill="#BE111D"/>
<path d="M41.5273 41.5312H45.1385V45.1424H41.5273V41.5312Z" fill="#BE111D"/>
<path d="M48.75 41.5312H52.3611V45.1424H48.75V41.5312Z" fill="#BE111D"/>
</g>
<defs>
<clipPath id="clip0_1612_5497">
<rect width="65" height="65" fill="white"/>
</clipPath>
</defs>
</svg>
