<svg width="85" height="85" viewBox="0 0 85 85" fill="none" xmlns="http://www.w3.org/2000/svg">
<path d="M69.0625 21.25H79.6875V85H10.625V21.25H21.25V15.9375H26.5625V21.25H63.75V15.9375H69.0625V21.25ZM74.375 26.5625H69.0625V31.875H74.375V26.5625ZM63.75 26.5625H26.5625V31.875H63.75V26.5625ZM21.25 26.5625H15.9375V31.875H21.25V26.5625ZM15.9375 79.6875H74.375V37.1875H15.9375V79.6875ZM10.625 15.9375V10.625H5.3125V69.0625H0V5.3125H10.625V0H15.9375V5.3125H53.125V0H58.4375V5.3125H69.0625V10.625H58.4375V15.9375H53.125V10.625H15.9375V15.9375H10.625ZM26.5625 58.4375V53.125H31.875V58.4375H26.5625ZM37.1875 58.4375V53.125H42.5V58.4375H37.1875ZM47.8125 58.4375V53.125H53.125V58.4375H47.8125ZM58.4375 58.4375V53.125H63.75V58.4375H58.4375ZM26.5625 69.0625V63.75H31.875V69.0625H26.5625ZM37.1875 69.0625V63.75H42.5V69.0625H37.1875ZM47.8125 69.0625V63.75H53.125V69.0625H47.8125ZM37.1875 47.8125V42.5H42.5V47.8125H37.1875ZM47.8125 47.8125V42.5H53.125V47.8125H47.8125ZM58.4375 47.8125V42.5H63.75V47.8125H58.4375Z" fill="#BE111D"/>
</svg>
