<svg width="32" height="32" viewBox="0 0 32 32" fill="none" xmlns="http://www.w3.org/2000/svg">
<path fill-rule="evenodd" clip-rule="evenodd" d="M23.0938 20.5814C24.7565 18.4379 25.5401 15.7414 25.2852 13.0407C25.0303 10.3399 23.7561 7.83768 21.7218 6.04305C19.6875 4.24843 17.0459 3.2962 14.3344 3.38011C11.623 3.46401 9.0453 4.57774 7.12584 6.49471C5.20472 8.41301 4.08735 10.9917 4.00144 13.7052C3.91553 16.4187 4.86755 19.0629 6.66348 21.0989C8.45942 23.1349 10.9641 24.4094 13.6671 24.6628C16.3702 24.9162 19.0681 24.1294 21.2112 22.4627L21.2685 22.5227L26.9245 28.18C27.0484 28.3039 27.1955 28.4022 27.3573 28.4692C27.5192 28.5363 27.6927 28.5708 27.8678 28.5708C28.043 28.5708 28.2165 28.5363 28.3784 28.4692C28.5402 28.4022 28.6873 28.3039 28.8112 28.18C28.9351 28.0562 29.0333 27.9091 29.1004 27.7472C29.1674 27.5854 29.2019 27.4119 29.2019 27.2367C29.2019 27.0615 29.1674 26.888 29.1004 26.7262C29.0333 26.5643 28.9351 26.4173 28.8112 26.2934L23.1538 20.6374C23.1344 20.6182 23.1144 20.5995 23.0938 20.5814ZM20.3258 8.38138C21.0786 9.12202 21.6774 10.0044 22.0874 10.9776C22.4975 11.9507 22.7109 12.9955 22.7152 14.0515C22.7195 15.1076 22.5146 16.154 22.1125 17.1305C21.7104 18.107 21.1188 18.9942 20.3721 19.741C19.6254 20.4877 18.7381 21.0792 17.7617 21.4814C16.7852 21.8835 15.7387 22.0883 14.6827 22.084C13.6266 22.0797 12.5819 21.8664 11.6087 21.4563C10.6355 21.0462 9.75315 20.4475 9.01251 19.6947C7.5324 18.1903 6.70672 16.162 6.71531 14.0515C6.7239 11.9411 7.56608 9.91957 9.05839 8.42726C10.5507 6.93495 12.5722 6.09277 14.6827 6.08418C16.7931 6.07559 18.8214 6.90127 20.3258 8.38138Z" fill="#242323"/>
</svg>
