<svg width="170" height="50" viewBox="0 0 170 50" fill="none" xmlns="http://www.w3.org/2000/svg">
<path d="M162.916 49.7734H6.26601C2.82127 49.7734 0 47.0189 0 43.6557V6.94903C0 3.58578 2.82127 0.831252 6.26601 0.831252H162.916C166.361 0.831252 169.182 3.58578 169.182 6.94903V43.6557C169.182 47.0189 166.361 49.7734 162.916 49.7734Z" fill="black"/>
<path d="M59.4249 13.3606C59.4249 14.3823 59.1116 15.2006 58.4944 15.8108C57.7848 16.5342 56.8605 16.8982 55.7279 16.8982C54.6455 16.8982 53.7213 16.5281 52.9631 15.7986C52.2033 15.0583 51.8242 14.1498 51.8242 13.0624C51.8242 11.975 52.2033 11.0665 52.9631 10.3324C53.7213 9.59669 54.6455 9.22656 55.7279 9.22656C56.2668 9.22656 56.7806 9.33515 57.2709 9.53704C57.7597 9.74046 58.1576 10.0158 58.4458 10.3553L57.791 11.0007C57.2882 10.4211 56.6036 10.1351 55.7279 10.1351C54.9384 10.1351 54.2539 10.4042 53.6727 10.9472C53.0978 11.4917 52.8095 12.1967 52.8095 13.0624C52.8095 13.9281 53.0978 14.6393 53.6727 15.1837C54.2539 15.7206 54.9384 15.9959 55.7279 15.9959C56.566 15.9959 57.271 15.7206 57.8271 15.1776C58.1936 14.8182 58.402 14.3227 58.4568 13.6895H55.7279V12.8055H59.3685C59.4124 12.9966 59.4249 13.1817 59.4249 13.3606Z" fill="white" stroke="white" stroke-width="0.16" stroke-miterlimit="10"/>
<path d="M65.2003 10.2993H61.7806V12.624H64.8635V13.508H61.7806V15.8328H65.2003V16.7336H60.8125V9.39844H65.2003V10.2993Z" fill="white" stroke="white" stroke-width="0.16" stroke-miterlimit="10"/>
<path d="M69.2766 16.7336H68.3085V10.2993H66.2109V9.39844H71.3757V10.2993H69.2766V16.7336Z" fill="white" stroke="white" stroke-width="0.16" stroke-miterlimit="10"/>
<path d="M75.1133 16.7336V9.39844H76.0798V16.7336H75.1133Z" fill="white" stroke="white" stroke-width="0.16" stroke-miterlimit="10"/>
<path d="M80.3625 16.7336H79.4022V10.2993H77.2969V9.39844H82.4679V10.2993H80.3625V16.7336Z" fill="white" stroke="white" stroke-width="0.16" stroke-miterlimit="10"/>
<path d="M92.2427 15.7863C91.5018 16.5281 90.5838 16.8982 89.4888 16.8982C88.3875 16.8982 87.4696 16.5281 86.7286 15.7863C85.9892 15.0461 85.6211 14.1376 85.6211 13.0624C85.6211 11.9872 85.9892 11.0787 86.7286 10.3385C87.4696 9.59669 88.3875 9.22656 89.4888 9.22656C90.5775 9.22656 91.4955 9.59669 92.2364 10.3446C92.9821 11.091 93.3502 11.9933 93.3502 13.0624C93.3502 14.1376 92.9821 15.0461 92.2427 15.7863ZM87.4445 15.1715C88.0022 15.7206 88.6805 15.9959 89.4888 15.9959C90.2908 15.9959 90.9754 15.7206 91.5268 15.1715C92.0829 14.6224 92.3649 13.9174 92.3649 13.0624C92.3649 12.2074 92.0829 11.5024 91.5268 10.9533C90.9754 10.4042 90.2908 10.1289 89.4888 10.1289C88.6805 10.1289 88.0022 10.4042 87.4445 10.9533C86.8884 11.5024 86.6064 12.2074 86.6064 13.0624C86.6064 13.9174 86.8884 14.6224 87.4445 15.1715Z" fill="white" stroke="white" stroke-width="0.16" stroke-miterlimit="10"/>
<path d="M94.7109 16.7336V9.39844H95.8858L99.5389 15.1033H99.5812L99.5389 13.6931V9.39844H100.505V16.7336H99.4966L95.6712 10.7474H95.6289L95.6712 12.1637V16.7336H94.7109Z" fill="white" stroke="white" stroke-width="0.16" stroke-miterlimit="10"/>
<path d="M85.3852 27.4509C82.4417 27.4509 80.0372 29.638 80.0372 32.6556C80.0372 35.6488 82.4417 37.8588 85.3852 37.8588C88.3349 37.8588 90.7395 35.6488 90.7395 32.6556C90.7395 29.638 88.3349 27.4509 85.3852 27.4509ZM85.3852 35.8093C83.7701 35.8093 82.3807 34.5078 82.3807 32.6556C82.3807 30.779 83.7701 29.5004 85.3852 29.5004C87.0003 29.5004 88.396 30.779 88.396 32.6556C88.396 34.5078 87.0003 35.8093 85.3852 35.8093ZM73.7163 27.4509C70.7666 27.4509 68.3683 29.638 68.3683 32.6556C68.3683 35.6488 70.7666 37.8588 73.7163 37.8588C76.6645 37.8588 79.0644 35.6488 79.0644 32.6556C79.0644 29.638 76.6645 27.4509 73.7163 27.4509ZM73.7163 35.8093C72.0997 35.8093 70.7055 34.5078 70.7055 32.6556C70.7055 30.779 72.0997 29.5004 73.7163 29.5004C75.3314 29.5004 76.7209 30.779 76.7209 32.6556C76.7209 34.5078 75.3314 35.8093 73.7163 35.8093ZM59.8308 29.0462V31.2577H65.24C65.0818 32.4935 64.6588 33.402 64.0103 34.0352C63.2208 34.7999 61.991 35.6488 59.8308 35.6488C56.502 35.6488 53.8954 33.0258 53.8954 29.7757C53.8954 26.5256 56.502 23.9026 59.8308 23.9026C61.6308 23.9026 62.9404 24.5894 63.9069 25.4795L65.5032 23.921C64.1513 22.6607 62.3529 21.6926 59.8308 21.6926C55.2661 21.6926 51.4297 25.3189 51.4297 29.7757C51.4297 34.2325 55.2661 37.8588 59.8308 37.8588C62.2981 37.8588 64.1513 37.0696 65.6081 35.5891C67.101 34.1315 67.5662 32.0821 67.5662 30.4272C67.5662 29.9133 67.5224 29.4407 67.444 29.0462H59.8308ZM116.61 30.7607C116.17 29.5968 114.812 27.4509 112.046 27.4509C109.304 27.4509 107.022 29.56 107.022 32.6556C107.022 35.5708 109.281 37.8588 112.309 37.8588C114.757 37.8588 116.17 36.4012 116.751 35.5524L114.934 34.3701C114.328 35.2358 113.502 35.8093 112.309 35.8093C111.123 35.8093 110.272 35.2786 109.727 34.2325L116.856 31.3525L116.61 30.7607ZM109.342 32.4935C109.281 30.4869 110.938 29.4591 112.125 29.4591C113.056 29.4591 113.845 29.9133 114.109 30.5634L109.342 32.4935ZM103.547 37.5422H105.891V22.2478H103.547V37.5422ZM99.7093 28.6103H99.631C99.1046 28.0015 98.1005 27.4509 96.8285 27.4509C94.1592 27.4509 91.7186 29.739 91.7186 32.6725C91.7186 35.5891 94.1592 37.8588 96.8285 37.8588C98.1005 37.8588 99.1046 37.3036 99.631 36.6765H99.7093V37.4229C99.7093 39.4127 98.6206 40.4818 96.8645 40.4818C95.4328 40.4818 94.5446 39.4724 94.178 38.6235L92.14 39.454C92.7274 40.8336 94.2829 42.5312 96.8645 42.5312C99.6122 42.5312 101.931 40.9529 101.931 37.1124V27.7675H99.7093V28.6103ZM97.029 35.8093C95.414 35.8093 94.0621 34.4894 94.0621 32.6725C94.0621 30.8387 95.414 29.5004 97.029 29.5004C98.6206 29.5004 99.8754 30.8387 99.8754 32.6725C99.8754 34.4894 98.6206 35.8093 97.029 35.8093ZM127.582 22.2478H121.977V37.5422H124.314V31.7471H127.582C130.178 31.7471 132.723 29.9133 132.723 26.9967C132.723 24.0816 130.172 22.2478 127.582 22.2478ZM127.643 29.6197H124.314V24.3752H127.643C129.388 24.3752 130.385 25.79 130.385 26.9967C130.385 28.1805 129.388 29.6197 127.643 29.6197ZM142.091 27.4219C140.402 27.4219 138.646 28.1499 137.924 29.7635L139.998 30.6123C140.445 29.7635 141.266 29.4882 142.133 29.4882C143.346 29.4882 144.576 30.1994 144.594 31.455V31.6156C144.171 31.377 143.266 31.0237 142.152 31.0237C139.918 31.0237 137.642 32.2243 137.642 34.465C137.642 36.5144 139.472 37.8343 141.529 37.8343C143.101 37.8343 143.969 37.1415 144.514 36.3355H144.594V37.5177H146.852V31.6508C146.852 28.9391 144.778 27.4219 142.091 27.4219ZM141.809 35.8032C141.045 35.8032 139.979 35.4331 139.979 34.5078C139.979 33.324 141.308 32.8698 142.458 32.8698C143.487 32.8698 143.969 33.0915 144.594 33.3837C144.411 34.7999 143.163 35.8032 141.809 35.8032ZM155.076 27.7568L152.389 34.387H152.309L149.532 27.7568H147.011L151.185 37.0222L148.804 42.1779H151.246L157.676 27.7568H155.076ZM134.008 37.5422H136.351V22.2478H134.008V37.5422Z" fill="white"/>
<path d="M13.0773 10.0579C12.7091 10.4341 12.4961 11.0199 12.4961 11.7785V38.8374C12.4961 39.596 12.7091 40.1818 13.0773 40.558L13.1681 40.6406L28.6984 25.4838V25.126L13.1681 9.96917L13.0773 10.0579Z" fill="url(#paint0_linear_1563_6659)"/>
<path d="M33.8702 30.5312L28.6992 25.4764V25.1185L33.8765 20.0637L33.9924 20.1295L40.1237 23.5356C41.8735 24.5022 41.8735 26.0928 40.1237 27.0655L33.9924 30.4655L33.8702 30.5312Z" fill="url(#paint1_linear_1563_6659)"/>
<path d="M33.9886 30.469L28.6954 25.301L13.0742 40.5541C13.6554 41.1506 14.6031 41.2225 15.6809 40.626L33.9886 30.469Z" fill="url(#paint2_linear_1563_6659)"/>
<path d="M33.9886 20.1289L15.6809 9.97186C14.6031 9.38149 13.6554 9.45337 13.0742 10.0499L28.6954 25.2969L33.9886 20.1289Z" fill="url(#paint3_linear_1563_6659)"/>
<defs>
<linearGradient id="paint0_linear_1563_6659" x1="27.3195" y1="39.1192" x2="6.79123" y2="18.0935" gradientUnits="userSpaceOnUse">
<stop stop-color="#00A0FF"/>
<stop offset="0.0066" stop-color="#00A1FF"/>
<stop offset="0.2601" stop-color="#00BEFF"/>
<stop offset="0.5122" stop-color="#00D2FF"/>
<stop offset="0.7604" stop-color="#00DFFF"/>
<stop offset="1" stop-color="#00E3FF"/>
</linearGradient>
<linearGradient id="paint1_linear_1563_6659" x1="42.4022" y1="25.2958" x2="12.0786" y2="25.2958" gradientUnits="userSpaceOnUse">
<stop stop-color="#FFE000"/>
<stop offset="0.4087" stop-color="#FFBD00"/>
<stop offset="0.7754" stop-color="#FFA500"/>
<stop offset="1" stop-color="#FF9C00"/>
</linearGradient>
<linearGradient id="paint2_linear_1563_6659" x1="31.1103" y1="22.4916" x2="3.27227" y2="-6.021" gradientUnits="userSpaceOnUse">
<stop stop-color="#FF3A44"/>
<stop offset="1" stop-color="#C31162"/>
</linearGradient>
<linearGradient id="paint3_linear_1563_6659" x1="9.14204" y1="49.5524" x2="21.573" y2="36.8203" gradientUnits="userSpaceOnUse">
<stop stop-color="#32A071"/>
<stop offset="0.0685" stop-color="#2DA771"/>
<stop offset="0.4762" stop-color="#15CF74"/>
<stop offset="0.8009" stop-color="#06E775"/>
<stop offset="1" stop-color="#00F076"/>
</linearGradient>
</defs>
</svg>
