<svg width="110" height="110" viewBox="0 0 110 110" fill="none" xmlns="http://www.w3.org/2000/svg">
<path fill-rule="evenodd" clip-rule="evenodd" d="M61.0308 13.1253C58.781 12.4889 55.7899 12.4699 52.8035 12.4699C49.6869 12.4699 47.5578 13.1467 46.0706 14.1049C44.5928 15.0582 43.5721 16.4096 42.8663 18.0779C41.5212 21.2526 41.4122 25.3162 41.5472 29.1534H85.8216C87.1289 29.1534 88.2041 30.226 88.0549 31.532C86.5345 44.898 72.3297 55.3705 55.0344 55.3705C37.7367 55.3705 23.5343 44.898 22.0139 31.532C21.8647 30.226 22.9375 29.1534 24.2472 29.1534H36.8083C36.6734 25.2614 36.7586 20.3397 38.5087 16.2094C39.5129 13.8379 41.0901 11.6571 43.5129 10.0936C45.9285 8.5373 49.0001 7.70312 52.8035 7.70312H52.974C55.7496 7.70312 59.3683 7.70312 62.3144 8.5373C63.849 8.97108 65.4215 9.68847 66.6246 10.9445C67.8916 12.2601 68.5737 13.9881 68.5737 16.0449C68.5737 16.677 68.3242 17.2832 67.88 17.7302C67.4359 18.1772 66.8335 18.4283 66.2054 18.4283C65.5773 18.4283 64.9749 18.1772 64.5308 17.7302C64.0867 17.2832 63.8372 16.677 63.8372 16.0449C63.8372 15.1226 63.5648 14.6149 63.2214 14.2574C62.8165 13.8355 62.1249 13.4351 61.0308 13.1253ZM27.3401 33.9202C30.1228 42.8817 40.761 50.6038 55.0344 50.6038C69.3078 50.6038 79.9484 42.8817 82.7287 33.9202H27.3401ZM36.0884 98.2711V103.038H73.9804V98.2711H36.0884Z" fill="#BE111D"/>
<path fill-rule="evenodd" clip-rule="evenodd" d="M71.9152 46.8125C73.4072 48.8574 73.9779 51.2456 73.9779 53.7124C73.9779 57.3947 72.6943 60.8219 69.3598 63.2148C67.02 64.8927 63.8418 65.9367 59.7684 66.3728V61.5751C63.0271 61.1699 65.2012 60.3429 66.6079 59.3347C68.4552 58.0096 69.2414 56.1815 69.2414 53.71C69.2414 51.9868 68.8507 50.6664 68.0976 49.6344L71.9152 46.8125ZM50.2954 61.8945V66.666C48.0053 66.7542 45.99 66.971 44.3606 67.5001C43.0841 67.9125 42.2505 68.4606 41.7247 69.1185C41.2203 69.7477 40.8224 70.701 40.8224 72.2859C40.8224 73.878 41.2203 74.8362 41.7271 75.4701C42.2529 76.1303 43.0889 76.6809 44.363 77.0956C47.0154 77.9584 50.6933 77.9917 54.923 77.9917L54.9704 77.987C55.0746 77.9798 55.2214 77.9679 55.4014 77.9631C55.7613 77.9465 56.2634 77.9393 56.8578 77.9655C58.3822 78.0276 59.889 78.3168 61.3291 78.8235C63.0035 79.4337 64.8033 80.4871 66.1793 82.2937C67.5718 84.1218 68.3817 86.5313 68.3817 89.5821C68.3817 92.6304 67.5718 95.0233 66.1461 96.8108C64.7394 98.5769 62.9016 99.5398 61.2107 100.055C60.7369 100.199 60.2554 100.316 59.7684 100.405V95.5143L59.8395 95.4928C60.8933 95.1711 61.8004 94.6443 62.4516 93.8292C63.0863 93.0332 63.6476 91.7485 63.6476 89.5821C63.6476 87.418 63.0863 86.069 62.4185 85.1919C61.7364 84.2957 60.7891 83.6975 59.7187 83.309C58.7263 82.9644 57.689 82.7685 56.64 82.7275C56.2075 82.707 55.7742 82.711 55.3422 82.7394L55.2877 82.7442H55.283L55.1645 82.7585H54.7785C50.8283 82.7585 46.3712 82.7585 42.9065 81.6311C41.0735 81.0353 39.3186 80.0676 38.0326 78.4541C36.723 76.8096 36.0859 74.7361 36.0859 72.2859C36.0859 69.8382 36.7254 67.7671 38.035 66.1297C39.321 64.5209 41.0758 63.5557 42.9089 62.9622C45.1019 62.252 47.688 61.9898 50.2954 61.8945Z" fill="#BE111D"/>
<path fill-rule="evenodd" clip-rule="evenodd" d="M52.9414 83.9724V99.4643H57.6779V83.9724H52.9414ZM52.9414 74.4389H57.6779V51.7969H52.9414V74.4389Z" fill="#BE111D"/>
</svg>
