<svg width="160" height="160" viewBox="0 0 160 160" fill="none" xmlns="http://www.w3.org/2000/svg">
<path fill-rule="evenodd" clip-rule="evenodd" d="M76.493 69.3926C75.9109 71.1391 74.0231 72.083 72.2766 71.5008L62.7514 68.3257C60.5637 68.2291 57.4053 67.5439 54.7237 64.8622C51.7948 61.9333 49.9974 57.1857 49.9974 50.0052C49.9974 44.1868 51.3588 39.6368 53.8221 36.4619C56.3308 33.2285 59.8044 31.6719 63.3307 31.6719C66.6094 31.6719 70.1496 32.7977 72.7856 36.0194C75.336 39.1366 76.6641 43.764 76.6641 50.0052C76.6641 56.883 75.015 61.5287 72.3021 64.482L74.3848 65.1763C76.1313 65.7584 77.0752 67.6462 76.493 69.3926ZM59.0893 40.5485C57.8026 42.2069 56.6641 45.1569 56.6641 50.0052C56.6641 56.1581 58.2 58.9104 59.4378 60.1482C60.6755 61.3859 62.1779 61.6719 63.3307 61.6719C64.4836 61.6719 65.986 61.3859 67.2237 60.1482C68.4614 58.9104 69.9974 56.1581 69.9974 50.0052C69.9974 44.5797 68.8254 41.7071 67.6259 40.241C66.5118 38.8794 65.0521 38.3385 63.3307 38.3385C61.857 38.3385 60.3307 38.9486 59.0893 40.5485ZM41.9974 86.3385H98.9974C105.964 86.3385 111.664 80.6385 111.664 73.6719V29.3385C111.664 22.3719 105.964 16.6719 98.9974 16.6719H29.3307C22.3641 16.6719 16.6641 22.3719 16.6641 29.3385V111.672L41.9974 86.3385ZM23.3307 95.5771L39.236 79.6719H98.9974C102.282 79.6719 104.997 76.9566 104.997 73.6719V29.3385C104.997 26.0538 102.282 23.3385 98.9974 23.3385H29.3307C26.046 23.3385 23.3307 26.0538 23.3307 29.3385V95.5771ZM120.759 111.339L136.664 127.244V54.6719C136.664 51.4989 134.131 48.8574 130.997 48.6812V92.6719C130.997 99.8371 125.163 105.672 117.997 105.672H48.6734C48.8495 108.805 51.4911 111.339 54.6641 111.339H120.759ZM42.0018 105.672C41.9989 105.561 41.9974 105.45 41.9974 105.339V99.0052H117.997C121.481 99.0052 124.331 96.1552 124.331 92.6719V42.0052H130.664C130.776 42.0052 130.887 42.0067 130.997 42.0096C137.812 42.1879 143.331 47.8166 143.331 54.6719V143.339L117.997 118.005H54.6641C47.8088 118.005 42.1801 112.486 42.0018 105.672Z" fill="#BE111D"/>
</svg>
