<svg width="160" height="160" viewBox="0 0 160 160" fill="none" xmlns="http://www.w3.org/2000/svg">
<path fill-rule="evenodd" clip-rule="evenodd" d="M40.6647 26.6667C39.4932 26.6667 38.3698 27.132 37.5414 27.9603C36.7131 28.7886 36.2478 29.912 36.2478 31.0833C36.2478 32.2547 36.7131 33.3781 37.5414 34.2064C38.3698 35.0346 39.4932 35.5 40.6647 35.5H81.9993C82.5794 35.5 83.1537 35.3858 83.6896 35.1638C84.2255 34.9418 84.7124 34.6165 85.1226 34.2064C85.5327 33.7962 85.8581 33.3093 86.08 32.7735C86.302 32.2376 86.4162 31.6633 86.4162 31.0833C86.4162 30.5034 86.302 29.929 86.08 29.3932C85.8581 28.8573 85.5327 28.3704 85.1226 27.9603C84.7124 27.5502 84.2255 27.2248 83.6896 27.0029C83.1537 26.7809 82.5794 26.6667 81.9993 26.6667H40.6647ZM32.8275 23.2462C34.9061 21.1677 37.7252 20 40.6647 20H81.9993C83.4548 20 84.8961 20.2867 86.2408 20.8437C87.5855 21.4006 88.8074 22.217 89.8366 23.2462C90.8658 24.2754 91.6822 25.4972 92.2392 26.8419C92.7962 28.1866 93.0829 29.6278 93.0829 31.0833C93.0829 32.5388 92.7962 33.9801 92.2392 35.3248C91.6822 36.6695 90.8658 37.8913 89.8366 38.9205C88.8074 39.9496 87.5855 40.766 86.2408 41.323C84.8961 41.88 83.4548 42.1667 81.9993 42.1667H40.6647C37.7252 42.1667 34.9061 40.999 32.8275 38.9205C30.7489 36.8419 29.5811 34.0228 29.5811 31.0833C29.5811 28.1438 30.7489 25.3247 32.8275 23.2462ZM39.2102 51L83.4474 51C83.4469 51 83.4478 51 83.4474 51C85.1051 50.9996 86.7431 51.371 88.2383 52.0869C89.7338 52.803 91.0497 53.8456 92.0888 55.1377L103.555 69.4064C105.136 71.3753 105.998 73.8258 105.997 76.3511C105.997 76.3506 105.997 76.3516 105.997 76.3511V118.917C105.997 121.856 104.83 124.675 102.751 126.754C100.672 128.832 97.8533 130 94.9138 130H27.7476C24.8081 130 21.989 128.832 19.9104 126.754C17.8318 124.675 16.6641 121.856 16.6641 118.917V76.3517C16.6641 76.3515 16.6641 76.3519 16.6641 76.3517C16.6632 73.8264 17.5248 71.3759 19.1062 69.4071L30.572 55.141C30.5848 55.1252 30.5976 55.1095 30.6106 55.0939C31.6434 53.823 32.9452 52.7965 34.4224 52.0885C35.9166 51.3724 37.5533 51.0005 39.2102 51ZM83.4486 57.6667H39.2112C39.2109 57.6667 39.2115 57.6667 39.2112 57.6667C38.5512 57.667 37.8987 57.8152 37.3035 58.1005C36.7081 58.3858 36.1842 58.801 35.7704 59.3156C35.7599 59.3287 35.7492 59.3417 35.7385 59.3546L24.3039 73.5818C24.3037 73.5821 24.3041 73.5815 24.3039 73.5818C23.674 74.3664 23.3303 75.3434 23.3307 76.3495L23.3307 118.917C23.3307 120.088 23.7961 121.211 24.6244 122.04C25.4527 122.868 26.5762 123.333 27.7476 123.333H94.9138C96.0853 123.333 97.2087 122.868 98.0371 122.04C98.8654 121.211 99.3307 120.088 99.3307 118.917V76.3511C99.3312 75.3448 98.988 74.367 98.3581 73.5824M98.3581 73.5824L86.8936 59.3156C86.8934 59.3153 86.8939 59.3159 86.8936 59.3156C86.4797 58.8011 85.9548 58.385 85.3592 58.0998C84.7632 57.8144 84.1094 57.6664 83.4486 57.6667" fill="#BE111D"/>
<path fill-rule="evenodd" clip-rule="evenodd" d="M62.1599 71.6688C64.0008 71.6688 65.4932 73.1611 65.4932 75.0021V87.1688H77.6599C79.5008 87.1688 80.9932 88.6611 80.9932 90.5021C80.9932 92.343 79.5008 93.8354 77.6599 93.8354H65.4932V106.002C65.4932 107.843 64.0008 109.335 62.1599 109.335C60.3189 109.335 58.8266 107.843 58.8266 106.002V93.8354H46.6599C44.8189 93.8354 43.3266 92.343 43.3266 90.5021C43.3266 88.6611 44.8189 87.1688 46.6599 87.1688H58.8266V75.0021C58.8266 73.1611 60.3189 71.6688 62.1599 71.6688Z" fill="#BE111D"/>
<path fill-rule="evenodd" clip-rule="evenodd" d="M147.198 101.1C149.408 97.2724 150.007 92.7231 148.863 88.4534C147.719 84.1838 144.926 80.5435 141.098 78.3333C137.27 76.1232 132.72 75.5243 128.451 76.6683C124.181 77.8124 120.541 80.6057 118.331 84.4338L101.664 113.301C99.4539 117.129 98.855 121.679 99.999 125.948C101.143 130.218 103.936 133.858 107.764 136.068C111.593 138.279 116.142 138.877 120.411 137.733C124.681 136.589 128.321 133.796 130.532 129.968L147.198 101.1ZM134.758 109.314L141.425 97.7671C142.751 95.4702 143.11 92.7407 142.424 90.1789C141.737 87.6171 140.061 85.4329 137.764 84.1068C135.468 82.7808 132.738 82.4214 130.176 83.1078C127.614 83.7943 125.43 85.4702 124.104 87.7671L117.438 99.3141L134.758 109.314ZM114.104 105.088L131.425 115.088L124.758 126.635C123.432 128.931 121.248 130.607 118.686 131.294C116.124 131.98 113.395 131.621 111.098 130.295C108.801 128.969 107.125 126.785 106.439 124.223C105.752 121.661 106.111 118.931 107.438 116.635L114.104 105.088Z" fill="#BE111D"/>
</svg>
