<svg width="172" height="42" viewBox="0 0 172 42" fill="none" xmlns="http://www.w3.org/2000/svg">
<g clip-path="url(#clip0_3123_7680)">
<path d="M10.2961 40.9981C10.1149 40.9741 9.9336 40.9621 9.7765 40.9021C9.32936 40.7461 8.85806 40.6261 8.44718 40.3861C6.25986 39.1501 4.0967 37.8781 1.92146 36.6301C0.640487 35.8981 0 34.8181 0 33.3421C0.0120847 30.7981 0.0120847 28.2541 0 25.7101C0 24.2341 0.640487 23.1541 1.90938 22.4101C4.0967 21.1501 6.29611 19.8781 8.48344 18.6181C9.09975 18.2581 9.75233 18.0781 10.4532 18.0781C10.5499 18.0781 10.6466 18.1021 10.7674 18.1141C10.7433 18.1981 10.7312 18.2461 10.7191 18.3061C10.6466 18.7621 10.5016 19.2181 10.5016 19.6741C10.4774 22.1941 10.5016 24.7261 10.4895 27.2461C10.4895 28.7221 11.1179 29.8261 12.411 30.5701C14.4895 31.7701 16.5681 32.9701 18.6466 34.1701C19.2146 34.4941 19.7826 34.7821 20.5198 34.8661C20.3143 35.1781 20.1693 35.5021 19.9276 35.7301C19.6134 36.0541 19.263 36.3661 18.8642 36.5941C16.6889 37.8781 14.4895 39.1381 12.3022 40.3981C11.7826 40.6981 11.2387 40.9021 10.6466 40.9381C10.5862 40.9381 10.5137 40.9741 10.4532 40.9861C10.4049 40.9981 10.3445 40.9981 10.2961 40.9981Z" fill="#485A87"/>
<path d="M11.0188 17.4937C10.5716 16.9177 10.3179 16.2097 10.3179 15.4417C10.3058 12.8257 10.3179 10.2217 10.3179 7.60574C10.3179 6.16574 10.9463 5.07374 12.2031 4.34174C14.1004 3.24974 15.9977 2.14574 17.895 1.05374C18.4146 0.753736 18.9342 0.429736 19.5022 0.213736C20.5657 -0.194265 21.5929 -0.0382645 22.5717 0.525736C24.1548 1.43774 25.7258 2.34974 27.3089 3.26174C27.9615 3.64574 28.6261 4.00574 29.2787 4.40174C30.4147 5.09774 31.0431 6.10574 31.0431 7.43774C31.0552 10.1857 31.0431 12.9337 31.031 15.6697C31.031 16.2817 30.7893 16.8337 30.3905 17.4337C30.3301 17.3257 30.3059 17.2417 30.2576 17.1937C29.9555 16.9417 29.6654 16.6537 29.315 16.4497C27.1035 15.1537 24.8799 13.8697 22.6563 12.5977C21.4358 11.8897 20.191 11.8897 18.9584 12.5977C16.7348 13.8817 14.5113 15.1537 12.2998 16.4497C11.8526 16.7497 11.4659 17.1457 11.0188 17.4937Z" fill="#F58807"/>
<path d="M30.8901 18.0359C31.6273 17.9519 32.3403 18.1319 33.005 18.5159C34.5276 19.3919 36.0382 20.2679 37.5609 21.1439C38.2497 21.5399 38.9506 21.9479 39.6394 22.3439C40.9204 23.0759 41.5367 24.1799 41.5488 25.6319C41.5609 28.1759 41.5609 30.7199 41.5488 33.2639C41.5488 34.7039 40.9325 35.8079 39.6636 36.5399C37.4642 37.8119 35.2648 39.0839 33.0654 40.3439C31.7965 41.0759 30.5276 41.0879 29.2587 40.3559C27.0351 39.0719 24.8236 37.7879 22.6001 36.5039C21.9475 36.1199 21.4399 35.6039 21.1016 34.8719C22.0079 34.8119 22.7209 34.3319 23.4581 33.9119C25.3916 32.7959 27.3131 31.6679 29.2587 30.5639C30.2859 29.9759 30.9264 29.1359 31.1077 27.9599C31.1318 27.7919 31.1439 27.6239 31.1439 27.4559C31.1439 24.8159 31.156 22.1639 31.1318 19.5239C31.1198 19.0319 30.9747 18.5519 30.8901 18.0359Z" fill="#485A87"/>
<path d="M88.9219 11.6761C89.2119 11.6761 89.4778 11.6761 89.7557 11.6761C90.5775 11.6761 91.3992 11.6881 92.221 11.6641C92.4748 11.6641 92.5594 11.7241 92.5473 11.9881C92.5352 13.6801 92.5473 15.3601 92.5473 17.0521C92.5473 17.1601 92.5594 17.2681 92.5594 17.4361C92.7044 17.3161 92.8011 17.2441 92.8977 17.1721C93.5986 16.6441 94.3237 16.1401 95.218 15.9841C96.644 15.7321 97.9612 15.9361 99.0005 17.0521C99.6651 17.7721 100.04 18.6601 100.233 19.6081C100.596 21.3841 100.608 23.1481 99.9431 24.8521C99.4355 26.1601 98.5775 27.2161 97.2482 27.7681C95.9068 28.3321 94.5533 28.2361 93.2361 27.6361C93.0186 27.5401 92.8131 27.4321 92.5956 27.3241C92.5714 27.3601 92.5473 27.3721 92.5352 27.3961C92.3781 27.8761 92.3781 27.8761 91.8584 27.8761C90.9884 27.8761 90.1183 27.8761 89.2482 27.8761C89.1515 27.8761 89.0427 27.8761 88.934 27.8761C88.9219 22.4761 88.9219 17.1001 88.9219 11.6761ZM92.5352 22.2361C92.5352 23.1481 92.5352 24.0601 92.5352 24.9841C92.5352 25.1641 92.5835 25.2721 92.7769 25.3081C93.0911 25.3681 93.4053 25.4401 93.7316 25.4761C95.1817 25.6321 96.1727 24.9721 96.5473 23.5801C96.8494 22.4401 96.8373 21.2881 96.5231 20.1481C96.2935 19.3081 95.7497 18.7921 94.8554 18.6961C94.1062 18.6121 93.4174 18.8041 92.7769 19.1761C92.6077 19.2721 92.5352 19.3801 92.5352 19.5721C92.5352 20.4601 92.5352 21.3481 92.5352 22.2361Z" fill="#485A87"/>
<path d="M129.271 11.6875C130.479 11.6875 131.675 11.6875 132.896 11.6875C132.896 14.6995 132.896 17.7115 132.896 20.7115C132.92 20.7235 132.932 20.7355 132.956 20.7355C133.017 20.6515 133.089 20.5795 133.15 20.4955C134.201 19.1275 135.24 17.7595 136.28 16.3795C136.388 16.2475 136.485 16.1875 136.654 16.1875C137.911 16.1995 139.168 16.1875 140.425 16.1875C140.497 16.1875 140.57 16.1995 140.691 16.1995C140.618 16.2955 140.57 16.3675 140.521 16.4275C139.265 17.9635 138.02 19.4995 136.751 21.0235C136.63 21.1795 136.63 21.2755 136.739 21.4435C138.105 23.4835 139.47 25.5355 140.836 27.5875C140.884 27.6595 140.932 27.7435 141.005 27.8515C140.884 27.8635 140.811 27.8635 140.727 27.8635C139.47 27.8635 138.213 27.8635 136.956 27.8635C136.763 27.8635 136.654 27.7915 136.546 27.6355C135.591 26.0875 134.624 24.5515 133.657 23.0155C133.609 22.9435 133.561 22.8595 133.488 22.7515C133.222 23.1475 132.86 23.4235 132.884 23.9515C132.92 25.1395 132.896 26.3395 132.896 27.5395C132.896 27.6355 132.896 27.7195 132.896 27.8395C132.799 27.8515 132.715 27.8515 132.63 27.8635C131.591 27.8635 130.552 27.8635 129.5 27.8635C129.307 27.8635 129.234 27.8155 129.234 27.6115C129.234 22.3795 129.234 17.1355 129.234 11.9035C129.246 11.8435 129.259 11.7715 129.271 11.6875Z" fill="#485A87"/>
<path d="M159.143 27.874C158.877 27.874 158.659 27.874 158.442 27.874C157.547 27.874 156.665 27.874 155.771 27.874C155.578 27.874 155.517 27.814 155.517 27.622C155.529 27.31 155.517 26.998 155.517 26.698C155.493 26.686 155.469 26.674 155.445 26.662C155.263 26.806 155.094 26.962 154.913 27.106C153.559 28.174 152.037 28.486 150.417 27.946C149.076 27.502 148.339 26.47 148.145 25.066C148.037 24.25 148.121 23.446 148.496 22.69C148.858 21.946 149.487 21.478 150.224 21.13C151.058 20.746 151.952 20.554 152.859 20.458C153.68 20.362 154.502 20.29 155.324 20.218C155.493 20.206 155.541 20.134 155.529 19.978C155.481 19.39 155.251 18.91 154.671 18.706C154.212 18.55 153.729 18.454 153.257 18.406C152.158 18.298 151.106 18.562 150.079 18.946C149.874 19.03 149.668 19.114 149.463 19.186C149.185 19.282 149.1 19.21 149.1 18.934C149.1 18.178 149.1 17.422 149.1 16.666C149.1 16.486 149.149 16.402 149.342 16.354C151.324 15.874 153.33 15.694 155.36 15.982C156.254 16.114 157.124 16.354 157.862 16.93C158.647 17.554 159.034 18.382 159.094 19.342C159.143 20.158 159.143 20.962 159.143 21.778C159.143 23.686 159.143 25.594 159.143 27.502C159.143 27.634 159.143 27.73 159.143 27.874ZM155.529 23.65C155.529 23.41 155.529 23.182 155.529 22.942C155.529 22.402 155.529 22.378 154.985 22.438C154.285 22.522 153.584 22.63 152.907 22.798C152.194 22.978 151.843 23.446 151.807 24.166C151.759 24.982 152.097 25.462 152.859 25.63C153.813 25.846 154.659 25.606 155.396 24.958C155.469 24.886 155.529 24.754 155.529 24.658C155.541 24.322 155.529 23.986 155.529 23.65Z" fill="#485A87"/>
<path d="M112.639 27.8625C111.443 27.8625 110.258 27.8625 109.05 27.8625C109.05 27.4665 109.05 27.0825 109.05 26.6265C108.76 26.8665 108.53 27.0585 108.289 27.2385C106.971 28.1985 105.521 28.4745 103.974 27.9585C102.669 27.5265 101.932 26.5425 101.702 25.1985C101.594 24.5625 101.63 23.9385 101.799 23.3145C102.077 22.2585 102.802 21.5865 103.757 21.1425C104.591 20.7585 105.485 20.5785 106.391 20.4705C107.213 20.3745 108.035 20.2905 108.857 20.2305C109.05 20.2185 109.074 20.1345 109.062 19.9665C108.977 19.1745 108.615 18.7665 107.781 18.5625C106.706 18.3105 105.63 18.3225 104.579 18.6465C104.095 18.8025 103.612 18.9825 103.128 19.1385C102.983 19.1865 102.826 19.1985 102.633 19.2345C102.633 18.9585 102.633 18.7305 102.633 18.5025C102.633 17.8785 102.633 17.2665 102.633 16.6425C102.633 16.4745 102.681 16.4145 102.85 16.3665C105.014 15.8505 107.189 15.6465 109.388 16.0785C110.452 16.2945 111.406 16.7025 112.047 17.6265C112.434 18.1905 112.639 18.8145 112.639 19.4865C112.663 22.2105 112.651 24.9225 112.651 27.6465C112.663 27.7305 112.651 27.7905 112.639 27.8625ZM109.05 22.3785C108.675 22.4145 108.337 22.4265 108.011 22.4865C107.418 22.5945 106.826 22.7025 106.246 22.8705C105.727 23.0265 105.437 23.4345 105.34 23.9745C105.195 24.8385 105.582 25.4625 106.391 25.6425C107.213 25.8225 107.962 25.6545 108.651 25.1865C108.929 25.0065 109.098 24.8025 109.05 24.4425C109.014 24.1785 109.038 23.9025 109.038 23.6265C109.05 23.2185 109.05 22.8225 109.05 22.3785Z" fill="#485A87"/>
<path d="M86.9018 22.0689C86.8897 23.2209 86.7084 24.3249 86.1767 25.3569C85.4275 26.7969 84.2553 27.6849 82.6722 28.0449C81.3066 28.3569 79.9289 28.3449 78.5755 27.9489C76.8594 27.4329 75.6872 26.3049 75.1313 24.6369C74.515 22.8129 74.5271 20.9529 75.2522 19.1409C75.9289 17.4609 77.2099 16.4409 78.9743 16.0449C80.5332 15.6969 82.0921 15.7449 83.5906 16.3569C85.0649 16.9569 85.9955 18.0729 86.4909 19.5489C86.6239 19.9449 86.7205 20.3529 86.781 20.7489C86.8655 21.1809 86.8776 21.6249 86.9018 22.0689ZM83.1556 22.0569C83.1676 21.3009 83.1072 20.5089 82.793 19.7529C82.4667 18.9489 81.8867 18.4689 81.0045 18.4209C80.0619 18.3729 79.3126 18.6849 78.9018 19.5849C78.4184 20.6409 78.4063 21.7569 78.503 22.8729C78.5513 23.3769 78.6721 23.8929 78.8413 24.3729C79.1314 25.1889 79.7477 25.6209 80.6178 25.6689C81.5725 25.7169 82.3217 25.3929 82.7447 24.4929C83.1072 23.7369 83.1676 22.9329 83.1556 22.0569Z" fill="#485A87"/>
<path d="M122.832 27.8753C122.832 27.6833 122.832 27.5393 122.832 27.3953C122.832 25.4513 122.832 23.5193 122.82 21.5753C122.82 21.0833 122.759 20.5913 122.687 20.1113C122.554 19.3073 122.131 18.9473 121.309 18.8753C120.524 18.8153 119.835 19.0673 119.206 19.5233C119.122 19.5833 119.086 19.7633 119.086 19.8833C119.074 22.4033 119.086 24.9113 119.086 27.4313C119.086 27.9473 119.146 27.8753 118.638 27.8873C117.696 27.8873 116.741 27.8873 115.799 27.8873C115.702 27.8873 115.593 27.8873 115.484 27.8873C115.484 23.9873 115.484 20.1233 115.484 16.2353C116.669 16.2353 117.865 16.2353 119.086 16.2353C119.086 16.6433 119.086 17.0393 119.086 17.5193C119.267 17.3873 119.376 17.3033 119.496 17.2193C120.209 16.6793 120.947 16.1633 121.853 15.9953C123.037 15.7793 124.185 15.8513 125.176 16.6553C125.95 17.2793 126.276 18.1553 126.397 19.0913C126.469 19.6073 126.494 20.1353 126.494 20.6633C126.506 22.9553 126.494 25.2593 126.494 27.5513C126.494 27.8873 126.494 27.8873 126.167 27.8873C125.164 27.8873 124.173 27.8873 123.17 27.8873C123.061 27.8753 122.965 27.8753 122.832 27.8753Z" fill="#485A87"/>
<path d="M53.5433 16.199C53.8455 16.199 54.1234 16.199 54.4013 16.199C55.2352 16.199 56.0811 16.199 56.915 16.199C57.1083 16.199 57.1687 16.259 57.1567 16.451C57.1446 16.703 57.1567 16.955 57.1567 17.219C57.1567 17.303 57.1687 17.375 57.1808 17.495C57.4588 17.279 57.7005 17.099 57.9542 16.919C58.631 16.439 59.3561 16.043 60.202 15.935C62.2806 15.683 63.9361 16.487 64.4075 18.767C64.5041 19.247 64.5525 19.763 64.5525 20.255C64.5646 22.703 64.5646 25.151 64.5646 27.599C64.5646 27.683 64.5525 27.767 64.5525 27.863C63.3319 27.863 62.1355 27.863 60.9029 27.863C60.9029 27.755 60.9029 27.659 60.9029 27.551C60.9029 25.607 60.915 23.675 60.8908 21.731C60.8908 21.179 60.8425 20.627 60.7458 20.087C60.6008 19.259 60.1295 18.899 59.2956 18.863C58.5464 18.827 57.8817 19.079 57.2896 19.499C57.2171 19.559 57.1567 19.691 57.1567 19.799C57.1446 20.327 57.1446 20.855 57.1446 21.371C57.1446 23.435 57.1446 25.487 57.1446 27.551C57.1446 27.803 57.0721 27.887 56.8183 27.875C55.8153 27.863 54.8243 27.863 53.8213 27.863C53.7246 27.863 53.64 27.863 53.5312 27.863C53.5433 23.975 53.5433 20.111 53.5433 16.199Z" fill="#485A87"/>
<path d="M165.509 25.1395C167.478 25.1395 169.364 25.1395 171.273 25.1395C171.273 26.0515 171.273 26.9395 171.273 27.8515C167.865 27.8515 164.457 27.8515 161.025 27.8515C161.013 27.7675 161.013 27.6835 161.013 27.6115C161.013 26.9755 161.001 26.3395 161.013 25.7035C161.013 25.5715 161.074 25.4275 161.158 25.3195C162.91 23.2675 164.663 21.2275 166.415 19.1755C166.475 19.1035 166.536 19.0195 166.633 18.8995C166.475 18.8875 166.367 18.8755 166.258 18.8755C164.699 18.8755 163.152 18.8755 161.593 18.8755C161.255 18.8755 161.255 18.8755 161.255 18.5395C161.255 17.8555 161.255 17.1715 161.255 16.4755C161.255 16.3795 161.267 16.2955 161.267 16.1875C164.578 16.1875 167.853 16.1875 171.176 16.1875C171.176 16.4755 171.176 16.7635 171.176 17.0515C171.176 17.4595 171.188 17.8675 171.164 18.2755C171.152 18.4075 171.104 18.5755 171.019 18.6835C169.255 20.7475 167.478 22.7995 165.714 24.8515C165.666 24.9355 165.617 25.0075 165.509 25.1395Z" fill="#485A87"/>
<path d="M67.6228 27.8699C67.6228 27.7259 67.6228 27.6179 67.6228 27.5099C67.6228 24.6779 67.6228 21.8459 67.6228 19.0139C67.6228 18.6899 67.6228 18.6899 67.2844 18.6779C66.9702 18.6779 66.656 18.6779 66.3418 18.6779C66.233 18.6779 66.1484 18.6659 66.1484 18.5099C66.1484 17.7539 66.1484 16.9859 66.1484 16.1939C66.5593 16.1939 66.946 16.1819 67.3327 16.1939C67.5744 16.2059 67.6349 16.1219 67.6349 15.8939C67.6228 15.0539 67.7315 14.2259 68.1424 13.4579C68.6741 12.4619 69.5442 11.9459 70.6198 11.7059C71.4778 11.5139 72.3479 11.5259 73.218 11.5859C73.6772 11.6219 74.1364 11.6579 74.5956 11.7179C74.6923 11.7299 74.8373 11.8379 74.8373 11.8979C74.8494 12.7139 74.8494 13.5179 74.8494 14.3819C74.7165 14.3699 74.6077 14.3699 74.511 14.3459C73.931 14.1899 73.3509 14.0819 72.7467 14.1299C72.5412 14.1419 72.3358 14.1779 72.1424 14.2259C71.647 14.3339 71.3569 14.6459 71.2482 15.1379C71.1877 15.4139 71.1757 15.6899 71.1394 15.9659C71.1152 16.1459 71.1877 16.2059 71.369 16.1939C72.1666 16.1819 72.9521 16.1939 73.7497 16.1939C73.8464 16.1939 73.931 16.1939 74.0518 16.1939C74.0518 16.4339 74.0518 16.6619 74.0518 16.8779C74.0518 17.3939 74.0397 17.9099 74.0518 18.4259C74.0518 18.6299 73.9793 18.6899 73.7859 18.6899C73.0367 18.6779 72.2995 18.7019 71.5503 18.6779C71.2965 18.6779 71.2361 18.7619 71.2361 19.0019C71.2482 21.8339 71.2361 24.6659 71.2361 27.4979C71.2361 27.8819 71.2361 27.8819 70.8373 27.8819C69.8705 27.8819 68.9037 27.8819 67.937 27.8819C67.8645 27.8699 67.7678 27.8699 67.6228 27.8699Z" fill="#485A87"/>
<path d="M47.0355 16.1995C47.1322 16.1995 47.2168 16.1995 47.3014 16.1995C48.3044 16.1995 49.3195 16.2115 50.3226 16.1875C50.5884 16.1875 50.6488 16.2595 50.6488 16.5115C50.6368 20.0515 50.6488 23.5795 50.6368 27.1195C50.6368 27.3595 50.6972 27.6835 50.5642 27.8155C50.4555 27.9355 50.1171 27.8635 49.8754 27.8635C49.0295 27.8635 48.1836 27.8635 47.3376 27.8635C47.241 27.8635 47.1322 27.8635 47.0234 27.8635C47.0355 23.9755 47.0355 20.1115 47.0355 16.1995Z" fill="#485A87"/>
<path d="M146.005 27.8596C144.784 27.8596 143.588 27.8596 142.367 27.8596C142.367 26.5156 142.367 25.1956 142.367 23.8516C143.576 23.8516 144.772 23.8516 146.005 23.8516C146.005 25.1716 146.005 26.5036 146.005 27.8596Z" fill="#485A87"/>
<path d="M46.9141 11.6719C47.6875 11.6719 48.4246 11.6719 49.1497 11.6719C49.621 11.6719 50.0923 11.6719 50.5636 11.6719C50.7207 11.6719 50.7812 11.7079 50.7812 11.8759C50.7812 12.6679 50.7812 13.4719 50.7812 14.2639C50.7812 14.4199 50.7207 14.4679 50.5636 14.4679C49.4156 14.4679 48.2796 14.4679 47.1316 14.4559C47.0591 14.4559 46.9261 14.3719 46.9261 14.3239C46.9141 13.4479 46.9141 12.5839 46.9141 11.6719Z" fill="#485A87"/>
</g>
<defs>
<clipPath id="clip0_3123_7680">
<rect width="171.276" height="41.004" fill="white"/>
</clipPath>
</defs>
</svg>
