<svg width="85" height="85" viewBox="0 0 85 85" fill="none" xmlns="http://www.w3.org/2000/svg">
<path d="M52.2234 15.5873C50.5947 15.5991 48.9778 15.679 47.2699 16.1405C45.4094 16.6497 43.6439 17.4621 42.0435 18.5456C39.7957 17.2144 37.6183 16.1198 35.5318 15.8624C32.9406 15.54 30.5343 15.7145 27.7377 15.7737C24.4217 15.8417 22.259 17.5487 18.7493 18.9154C15.2425 20.2763 10.7263 21.5957 4.35249 21.5957H1.41797V50.0697L3.07011 50.901L8.47843 53.5842L27.7377 75.2156L27.8287 75.3073C30.0296 77.5024 32.9993 78.0467 35.6228 77.8958C38.2492 77.7479 40.7142 76.9728 42.6832 75.7717C47.0175 73.1358 58.8231 64.8614 58.8231 64.8614L59.099 64.675L59.2838 64.4916C60.6807 63.0923 61.382 61.3853 61.8516 59.5926L73.1289 53.8593L81.5657 50.9956L83.5846 50.3448V21.5957H80.6501C75.7173 21.6297 70.8258 20.6869 66.2533 18.8208C62.7436 17.4392 60.6132 15.75 57.262 15.679C55.4719 15.6435 53.8491 15.5755 52.2234 15.5873ZM52.3114 21.504C53.632 21.4921 55.1579 21.5631 57.0829 21.5957C57.3911 21.6075 60.2112 22.8204 64.1434 24.3706C67.4682 25.6871 72.0872 26.8556 77.7156 27.2343V46.0937L70.928 48.4071H70.7461L70.5612 48.4959L61.6696 53.028C61.1976 51.6552 60.4482 50.396 59.4687 49.3301L59.2838 49.052L46.8121 33.6154L44.978 31.302L42.6832 33.151L34.7982 39.6238C32.1512 41.4728 30.0061 40.9403 27.8287 39.9019C27.1978 39.6001 27.233 39.5084 26.7282 39.1623L40.1185 27.9739L40.3004 27.7904C44.2767 23.8144 46.7211 22.4388 48.8281 21.8738C49.8846 21.5839 50.9938 21.5158 52.3114 21.504ZM31.8666 21.5957C32.8457 21.5585 33.8262 21.5891 34.8011 21.6874C35.57 21.7791 36.4415 22.4388 37.1869 22.7051C36.8876 22.9831 36.6704 23.1429 36.3593 23.4446L36.1774 23.631L20.1285 37.0323L17.6518 39.0676L19.8526 41.3781C19.8526 41.3781 21.9743 43.6915 25.2639 45.2624C28.5535 46.8333 33.6332 47.7237 38.1934 44.5228L38.3783 44.3364L44.0625 39.6238L54.885 53.028L54.976 53.2144L55.0669 53.3032C57.0037 55.2349 56.9597 58.2732 55.0669 60.2405C55.0434 60.2612 55.0904 60.3085 55.0669 60.3292C55.0434 60.344 54.6561 60.5747 54.6091 60.6102L50.7561 55.3385L45.9875 58.853L49.7496 63.9354C48.2236 64.9768 47.5369 65.5211 45.8965 66.6186L41.9555 61.2552L37.1839 64.7697L40.946 69.8521C40.6115 70.0592 39.9248 70.5236 39.6607 70.6863C38.7334 71.2514 36.9433 71.8874 35.3499 71.9791C33.8503 72.062 32.7029 71.7129 32.1424 71.2396L32.0515 71.1478L12.4254 49.2384L12.0586 48.7739L7.28702 46.3718V27.2343C12.892 26.8645 17.5461 25.7433 20.8592 24.4623C24.7797 22.9476 27.5792 21.6992 27.9197 21.6874L31.8637 21.5957H31.8666Z" fill="#BE111D"/>
</svg>
