<svg width="86" height="85" viewBox="0 0 86 85" fill="none" xmlns="http://www.w3.org/2000/svg">
<path fill-rule="evenodd" clip-rule="evenodd" d="M78.4167 9.90885H43V4.24219H78.4167V9.90885ZM4.75 11.3255H30.8364L34.8073 32.79L26.7143 41.1333C28.8915 44.6657 31.4131 48.1553 34.3771 51.1192C37.3458 54.0879 40.6673 56.4404 44.3473 58.7421L52.6938 50.3957L74.1667 54.6902V80.7422H67.6146C59.5633 80.7422 51.7304 78.9439 44.1405 75.3807C36.6154 71.8478 29.9395 67.173 24.1276 61.3611C18.3156 55.5491 13.6408 48.8732 10.108 41.3481C6.54479 33.7584 4.74764 25.9267 4.75 17.8776C4.75 17.8773 4.75 17.8779 4.75 17.8776V11.3255ZM10.4167 16.9922V17.8776C10.4144 25.0527 12.0102 32.0658 15.2375 38.94C18.4952 45.879 22.7926 52.0122 28.1345 57.3541C33.4764 62.6961 39.6096 66.9935 46.5487 70.2512C53.423 73.4785 60.4367 75.0755 67.6146 75.0755H68.5V59.3358L54.5563 56.547L45.2024 65.9009L43.3023 64.7508C38.7709 62.0081 34.3391 59.0952 30.3701 55.1262C26.4104 51.1664 23.2583 46.5053 20.7179 42.1504L19.6346 40.2933L28.7031 30.9443L26.1219 16.9922H10.4167ZM78.4167 24.0755H43V18.4089H78.4167V24.0755ZM78.4167 38.2422H43V32.5755H78.4167V38.2422Z" fill="#BE111D"/>
</svg>
