<svg width="86" height="85" viewBox="0 0 86 85" fill="none" xmlns="http://www.w3.org/2000/svg">
<path d="M69.4189 9.19141V75.813H46.5417V61.9844H39.4583L39.5541 75.813H16.5811V9.19141H69.4189ZM53.625 24.7969H60.7083V17.7135H53.625V24.7969ZM39.4583 24.7969H46.5417V17.7135H39.4583V24.7969ZM25.2917 24.7969H32.375V17.7135H25.2917V24.7969ZM53.625 38.9635H60.7083V31.8802H53.625V38.9635ZM39.4583 38.9635H46.5417V31.8802H39.4583V38.9635ZM25.2917 38.9635H32.375V31.8802H25.2917V38.9635ZM53.625 53.1302H60.7083V46.0469H53.625V53.1302ZM39.4583 53.1302H46.5417V46.0469H39.4583V53.1302ZM25.2917 53.1302H32.375V46.0469H25.2917V53.1302ZM53.625 67.2969H60.7083V60.2135H53.625V67.2969ZM25.2917 67.2969H32.375V60.2135H25.2917V67.2969ZM74.875 3.54688H11.125V81.4635H74.875V3.54688Z" fill="#BE111D"/>
</svg>
