<svg width="25" height="26" viewBox="0 0 25 26" fill="none" xmlns="http://www.w3.org/2000/svg">
<path d="M11.6461 3.14813C11.716 2.97941 11.8344 2.8352 11.9862 2.73374C12.1381 2.63228 12.3166 2.57812 12.4992 2.57812C12.6819 2.57812 12.8604 2.63228 13.0122 2.73374C13.1641 2.8352 13.2825 2.97941 13.3524 3.14813L15.8289 9.10125C15.8562 9.16764 15.9013 9.22522 15.9592 9.26766C16.0171 9.31011 16.0855 9.33579 16.157 9.34188L22.5852 9.8575C22.7671 9.87186 22.9407 9.93981 23.0841 10.0528C23.2274 10.1657 23.3341 10.3186 23.3906 10.4922C23.4471 10.6657 23.4509 10.8521 23.4016 11.0278C23.3522 11.2035 23.2519 11.3606 23.1133 11.4794L18.2149 15.6731C18.1607 15.7198 18.1204 15.7805 18.0983 15.8486C18.0763 15.9167 18.0734 15.9895 18.0899 16.0591L19.5852 22.3325C19.6273 22.5099 19.616 22.6958 19.5527 22.8668C19.4893 23.0377 19.3768 23.1861 19.2292 23.2932C19.0817 23.4004 18.9057 23.4614 18.7235 23.4687C18.5414 23.4759 18.3611 23.4291 18.2055 23.3341L12.7024 19.9747C12.6412 19.9374 12.5709 19.9177 12.4992 19.9177C12.4276 19.9177 12.3573 19.9374 12.2961 19.9747L6.79299 23.3341C6.63738 23.4291 6.45712 23.4759 6.27493 23.4687C6.09275 23.4614 5.91679 23.4004 5.76924 23.2932C5.62169 23.1861 5.50916 23.0377 5.44581 22.8668C5.38247 22.6958 5.37116 22.5099 5.4133 22.3325L6.90861 16.0591C6.92511 15.9895 6.92218 15.9167 6.90014 15.8486C6.8781 15.7805 6.83779 15.7198 6.78361 15.6731L1.88517 11.4794C1.74657 11.3606 1.64626 11.2035 1.59691 11.0278C1.54755 10.8521 1.55137 10.6657 1.60788 10.4922C1.66439 10.3186 1.77105 10.1657 1.9144 10.0528C2.05775 9.93981 2.23136 9.87186 2.4133 9.8575L8.83986 9.34188C8.91149 9.33621 8.98016 9.31089 9.03832 9.26871C9.09649 9.22653 9.1419 9.16913 9.16955 9.10282L11.6461 3.14969V3.14813Z" fill="#BE111D"/>
</svg>
