<svg width="65" height="65" viewBox="0 0 65 65" fill="none" xmlns="http://www.w3.org/2000/svg">
<path d="M60.9375 52.8151H56.875V24.3776C56.875 23.3002 56.447 22.2669 55.6851 21.505C54.9233 20.7432 53.8899 20.3151 52.8125 20.3151H36.5625V8.12764C36.563 7.39198 36.3637 6.67 35.9859 6.03875C35.6081 5.40751 35.066 4.8907 34.4174 4.54348C33.7689 4.19625 33.0382 4.03166 32.3034 4.06726C31.5686 4.10286 30.8573 4.33732 30.2453 4.74561L9.93281 18.2839C9.37559 18.6557 8.91894 19.1595 8.60353 19.7504C8.28812 20.3414 8.12373 21.0011 8.125 21.671V52.8151H4.0625C3.52378 52.8151 3.00712 53.0291 2.62619 53.4101C2.24526 53.791 2.03125 54.3077 2.03125 54.8464C2.03125 55.3851 2.24526 55.9018 2.62619 56.2827C3.00712 56.6636 3.52378 56.8776 4.0625 56.8776H60.9375C61.4762 56.8776 61.9929 56.6636 62.3738 56.2827C62.7547 55.9018 62.9688 55.3851 62.9688 54.8464C62.9688 54.3077 62.7547 53.791 62.3738 53.4101C61.9929 53.0291 61.4762 52.8151 60.9375 52.8151ZM52.8125 24.3776V52.8151H36.5625V24.3776H52.8125ZM12.1875 21.671L32.5 8.12764V52.8151H12.1875V21.671ZM28.4375 28.4401V32.5026C28.4375 33.0414 28.2235 33.558 27.8426 33.939C27.4616 34.3199 26.945 34.5339 26.4062 34.5339C25.8675 34.5339 25.3509 34.3199 24.9699 33.939C24.589 33.558 24.375 33.0414 24.375 32.5026V28.4401C24.375 27.9014 24.589 27.3848 24.9699 27.0038C25.3509 26.6229 25.8675 26.4089 26.4062 26.4089C26.945 26.4089 27.4616 26.6229 27.8426 27.0038C28.2235 27.3848 28.4375 27.9014 28.4375 28.4401ZM20.3125 28.4401V32.5026C20.3125 33.0414 20.0985 33.558 19.7176 33.939C19.3366 34.3199 18.82 34.5339 18.2812 34.5339C17.7425 34.5339 17.2259 34.3199 16.8449 33.939C16.464 33.558 16.25 33.0414 16.25 32.5026V28.4401C16.25 27.9014 16.464 27.3848 16.8449 27.0038C17.2259 26.6229 17.7425 26.4089 18.2812 26.4089C18.82 26.4089 19.3366 26.6229 19.7176 27.0038C20.0985 27.3848 20.3125 27.9014 20.3125 28.4401ZM20.3125 42.6589V46.7214C20.3125 47.2601 20.0985 47.7768 19.7176 48.1577C19.3366 48.5386 18.82 48.7526 18.2812 48.7526C17.7425 48.7526 17.2259 48.5386 16.8449 48.1577C16.464 47.7768 16.25 47.2601 16.25 46.7214V42.6589C16.25 42.1202 16.464 41.6035 16.8449 41.2226C17.2259 40.8416 17.7425 40.6276 18.2812 40.6276C18.82 40.6276 19.3366 40.8416 19.7176 41.2226C20.0985 41.6035 20.3125 42.1202 20.3125 42.6589ZM28.4375 42.6589V46.7214C28.4375 47.2601 28.2235 47.7768 27.8426 48.1577C27.4616 48.5386 26.945 48.7526 26.4062 48.7526C25.8675 48.7526 25.3509 48.5386 24.9699 48.1577C24.589 47.7768 24.375 47.2601 24.375 46.7214V42.6589C24.375 42.1202 24.589 41.6035 24.9699 41.2226C25.3509 40.8416 25.8675 40.6276 26.4062 40.6276C26.945 40.6276 27.4616 40.8416 27.8426 41.2226C28.2235 41.6035 28.4375 42.1202 28.4375 42.6589Z" fill="#BE111D"/>
</svg>
