<svg width="70" height="70" viewBox="0 0 70 70" fill="none" xmlns="http://www.w3.org/2000/svg">
<g clip-path="url(#clip0_1563_6280)">
<path d="M52.0104 38.8184L51.9793 38.3517L51.5115 38.3517L42.8206 38.3517L42.8206 6.64945L69.5 6.64945L69.5 36.7142C69.5 36.7142 69.5 36.7143 69.5 36.7144C69.4951 48.7148 65.1033 55.1062 59.2667 58.6422C53.5104 62.1296 46.2766 62.8896 40.1523 63.3299L37.6782 51.949C41.4111 51.1083 45.0553 50.1016 47.733 48.2471C49.1404 47.2723 50.293 46.0559 51.0519 44.4983C51.8108 42.9406 52.1607 41.0729 52.0104 38.8184ZM14.9264 38.8184L14.8952 38.3517L14.4275 38.3517L5.73659 38.3517L5.73659 6.64946L32.416 6.64946L32.416 36.7142C32.416 36.7142 32.416 36.7143 32.416 36.7144C32.4112 48.7148 28.0194 55.1062 22.1828 58.6422C16.4265 62.1296 9.19272 62.8896 3.06838 63.3299L0.59423 51.949C4.32711 51.1083 7.97135 50.1016 10.649 48.2471C12.0565 47.2723 13.2091 46.0559 13.9679 44.4983C14.7268 42.9406 15.0767 41.0729 14.9264 38.8184Z" stroke="#BE111D"/>
</g>
<defs>
<clipPath id="clip0_1563_6280">
<rect width="70" height="70" fill="white" transform="translate(70 70) rotate(180)"/>
</clipPath>
</defs>
</svg>
