<svg width="70" height="70" viewBox="0 0 70 70" fill="none" xmlns="http://www.w3.org/2000/svg">
<path d="M17.9896 31.1816L18.0207 31.6483H18.4885H27.1794V63.3505H0.5L0.5 33.2858C0.5 33.2858 0.5 33.2857 0.5 33.2856C0.50489 21.2851 4.89673 14.8938 10.7333 11.3578C16.4896 7.87043 23.7234 7.11037 29.8477 6.67006L32.3218 18.051C28.5889 18.8917 24.9447 19.8984 22.267 21.7529C20.8596 22.7277 19.707 23.9441 18.9481 25.5017C18.1892 27.0594 17.8393 28.9271 17.9896 31.1816ZM55.0736 31.1816L55.1048 31.6483H55.5725H64.2634V63.3505H37.584V33.2858C37.584 33.2858 37.584 33.2857 37.584 33.2856C37.5888 21.2852 41.9806 14.8938 47.8173 11.3578C53.5735 7.87045 60.8073 7.11037 66.9316 6.67006L69.4058 18.051C65.6729 18.8917 62.0287 19.8984 59.351 21.7529C57.9435 22.7277 56.7909 23.9441 56.0321 25.5017C55.2732 27.0594 54.9233 28.9271 55.0736 31.1816Z" stroke="#BE111D"/>
</svg>
