<svg width="160" height="160" viewBox="0 0 160 160" fill="none" xmlns="http://www.w3.org/2000/svg">
<path d="M142.392 96.3123C142.273 94.6976 135.95 59.0592 134.96 53.3527C134.865 52.8057 134.789 52.2233 134.706 51.6092C133.941 45.8747 132.514 35.2031 114.596 35.2031C112.447 35.2031 110.707 36.8738 110.707 38.9364C110.707 40.9991 112.447 42.6698 114.596 42.6698C125.67 42.6698 126.255 47.034 126.992 52.5612C127.087 53.2687 127.179 53.9463 127.288 54.5772C127.743 57.2055 129.804 67.6625 131.583 78.0299C127.019 74.6905 121.339 72.6858 115.162 72.6858C105.239 72.6858 96.4073 77.8135 91.552 85.4444C89.2168 84.597 85.2538 83.5386 79.9591 83.5386C74.74 83.5386 70.9035 84.6043 68.5314 85.5322C63.8102 77.8526 55.1262 72.6839 45.1648 72.6839C38.6917 72.6839 32.6795 74.8679 27.9271 78.4986C29.7296 68.0004 31.8646 57.2615 32.3274 54.5791C32.4383 53.9481 32.5296 53.2707 32.6229 52.5631C33.3599 47.0359 33.9452 42.6716 45.019 42.6716C47.1676 42.6716 48.9079 41.001 48.9079 38.9383C48.9079 36.8757 47.1676 35.205 45.019 35.205C27.1007 35.205 25.6733 45.8767 24.9091 51.6111C24.8255 52.2233 24.7497 52.8076 24.6543 53.3545C23.6626 59.0609 17.7263 94.464 17.6096 96.0807C17.5824 96.441 17.6271 96.7863 17.7011 97.1241C17.6642 97.6636 17.6136 98.1992 17.6136 98.7463C17.6136 113.136 30.1729 124.803 45.1629 124.803C60.1528 124.803 72.3057 113.136 72.3057 98.7463C72.3057 96.5698 71.9966 94.4679 71.4735 92.4482C73.068 91.8322 75.9497 91.0091 79.9572 91.0091C83.8676 91.0091 86.8193 91.7594 88.5012 92.3307C87.9411 94.3876 87.6105 96.5268 87.6105 98.7464C87.6105 113.136 100.17 124.803 115.16 124.803C130.15 124.803 142.303 113.136 142.303 98.7464C142.303 98.3563 142.26 97.9755 142.242 97.5891C142.361 97.1821 142.427 96.7564 142.392 96.3123ZM45.1641 117.334C34.4462 117.334 25.3927 108.821 25.3927 98.7443C25.3927 88.6681 34.4462 80.1542 45.1641 80.1542C55.8431 80.1542 64.5291 88.4926 64.5291 98.7443C64.5291 108.996 55.8431 117.334 45.1641 117.334ZM115.161 117.334C104.443 117.334 95.3896 108.82 95.3896 98.7441C95.3896 88.6678 104.443 80.154 115.161 80.154C124.397 80.154 132.13 86.3942 134.053 94.7121C134.133 95.4737 134.199 96.1905 134.25 96.8457C134.273 97.1594 134.361 97.4543 134.473 97.7399C134.493 98.0759 134.526 98.4063 134.526 98.746C134.526 108.996 125.84 117.334 115.161 117.334Z" fill="#BE111D"/>
</svg>
