<svg width="65" height="65" viewBox="0 0 65 65" fill="none" xmlns="http://www.w3.org/2000/svg">
<path fill-rule="evenodd" clip-rule="evenodd" d="M40.4855 3.38281H46.1838C48.6186 3.38281 50.6471 3.38281 52.2559 3.59948C53.9567 3.82698 55.4923 4.33073 56.7246 5.56302C57.9596 6.79802 58.4634 8.33365 58.6909 10.0318C58.9076 11.6432 58.9076 13.6745 58.9076 16.1066V57.5495H59.5846C60.1234 57.5495 60.64 57.7635 61.021 58.1444C61.4019 58.5254 61.6159 59.042 61.6159 59.5807C61.6159 60.1195 61.4019 60.6361 61.021 61.017C60.64 61.398 60.1234 61.612 59.5846 61.612H5.41797C4.87925 61.612 4.36259 61.398 3.98166 61.017C3.60072 60.6361 3.38672 60.1195 3.38672 59.5807C3.38672 59.042 3.60072 58.5254 3.98166 58.1444C4.36259 57.7635 4.87925 57.5495 5.41797 57.5495H6.09505V24.2316C6.09505 21.7995 6.09505 19.7682 6.31172 18.1595C6.53922 16.4586 7.04297 14.923 8.27526 13.6907C9.51026 12.4557 11.0459 11.952 12.744 11.7245C14.3555 11.5078 16.3867 11.5078 18.8188 11.5078H27.8376C27.9757 9.14073 28.4144 7.09323 29.9419 5.56302C31.1769 4.33073 32.7126 3.82969 34.4107 3.59948C36.0221 3.38281 38.0534 3.38281 40.4855 3.38281ZM29.8119 15.5703H18.9596C16.3488 15.5703 14.5938 15.5757 13.2857 15.7518C12.0371 15.9197 11.5009 16.2095 11.1488 16.5643C10.7967 16.9164 10.5069 17.4499 10.3363 18.6984C10.1657 20.0066 10.1576 21.7616 10.1576 24.3724V57.5495H22.3451V51.4557C22.3451 50.917 22.5591 50.4004 22.94 50.0194C23.3209 49.6385 23.8376 49.4245 24.3763 49.4245C24.915 49.4245 25.4317 49.6385 25.8126 50.0194C26.1935 50.4004 26.4076 50.917 26.4076 51.4557V57.5495H38.5951V24.3724C38.5951 21.7616 38.5896 20.0066 38.4163 18.6984C38.2457 17.4499 37.9559 16.9136 37.6038 16.5616C37.2517 16.2095 36.7155 15.9197 35.4642 15.7491C34.1615 15.5757 32.4119 15.5703 29.8119 15.5703ZM42.6576 57.5495V24.2316C42.6576 21.7995 42.6576 19.7682 42.4409 18.1595C42.2134 16.4586 41.7096 14.923 40.4746 13.6907C39.2423 12.4557 37.7067 11.952 36.0059 11.7245C34.8548 11.5701 33.4871 11.5241 31.9163 11.5132C32.0517 9.6174 32.3496 8.9051 32.8155 8.43656C33.1676 8.08448 33.7038 7.79469 34.9551 7.62406C36.2605 7.45073 38.0155 7.44531 40.6263 7.44531H46.043C48.6538 7.44531 50.4088 7.45073 51.7169 7.62677C52.9655 7.79469 53.5017 8.08448 53.8538 8.43927C54.2059 8.79135 54.4957 9.3249 54.6663 10.5734C54.8396 11.8816 54.8451 13.6366 54.8451 16.2474V57.5495H42.6576ZM14.2201 21.6641C14.2201 21.1253 14.4341 20.6087 14.815 20.2278C15.1959 19.8468 15.7126 19.6328 16.2513 19.6328H32.5013C33.04 19.6328 33.5567 19.8468 33.9376 20.2278C34.3185 20.6087 34.5326 21.1253 34.5326 21.6641C34.5326 22.2028 34.3185 22.7194 33.9376 23.1004C33.5567 23.4813 33.04 23.6953 32.5013 23.6953H16.2513C15.7126 23.6953 15.1959 23.4813 14.815 23.1004C14.4341 22.7194 14.2201 22.2028 14.2201 21.6641ZM14.2201 29.7891C14.2201 29.2503 14.4341 28.7337 14.815 28.3528C15.1959 27.9718 15.7126 27.7578 16.2513 27.7578H32.5013C33.04 27.7578 33.5567 27.9718 33.9376 28.3528C34.3185 28.7337 34.5326 29.2503 34.5326 29.7891C34.5326 30.3278 34.3185 30.8444 33.9376 31.2254C33.5567 31.6063 33.04 31.8203 32.5013 31.8203H16.2513C15.7126 31.8203 15.1959 31.6063 14.815 31.2254C14.4341 30.8444 14.2201 30.3278 14.2201 29.7891ZM14.2201 37.9141C14.2201 37.3753 14.4341 36.8587 14.815 36.4778C15.1959 36.0968 15.7126 35.8828 16.2513 35.8828H32.5013C33.04 35.8828 33.5567 36.0968 33.9376 36.4778C34.3185 36.8587 34.5326 37.3753 34.5326 37.9141C34.5326 38.4528 34.3185 38.9694 33.9376 39.3504C33.5567 39.7313 33.04 39.9453 32.5013 39.9453H16.2513C15.7126 39.9453 15.1959 39.7313 14.815 39.3504C14.4341 38.9694 14.2201 38.4528 14.2201 37.9141Z" fill="#BE111D"/>
</svg>
