<svg width="160" height="160" viewBox="0 0 160 160" fill="none" xmlns="http://www.w3.org/2000/svg">
<path fill-rule="evenodd" clip-rule="evenodd" d="M10 146.661C10 144.821 11.4924 143.328 13.3333 143.328H146.667C148.508 143.328 150 144.821 150 146.661C150 148.502 148.508 149.995 146.667 149.995H13.3333C11.4924 149.995 10 148.502 10 146.661Z" fill="#BE111D"/>
<path fill-rule="evenodd" clip-rule="evenodd" d="M73.0866 10H86.9082C92.9874 9.99991 97.886 9.99984 101.738 10.5181C105.739 11.0563 109.106 12.2076 111.781 14.883C114.456 17.5584 115.608 20.9252 116.146 24.9256C116.664 28.778 116.664 33.6766 116.664 39.7558V146.667H109.997V40C109.997 33.619 109.99 29.1705 109.539 25.8144C109.1 22.5548 108.298 20.8283 107.067 19.597C105.836 18.3658 104.109 17.5637 100.85 17.1252C97.4935 16.6738 93.0451 16.6667 86.6641 16.6667H73.3307C66.9497 16.6667 62.5012 16.6738 59.1452 17.1252C55.8856 17.5637 54.159 18.3658 52.9278 19.597C51.6965 20.8283 50.8945 22.5548 50.456 25.8144C50.0045 29.1705 49.9974 33.619 49.9974 40V146.667H43.3307L43.3307 39.7558C43.3306 33.6766 43.3306 28.778 43.8488 24.9256C44.387 20.9252 45.5383 17.5584 48.2137 14.883C50.8891 12.2076 54.2559 11.0563 58.2563 10.5181C62.1088 9.99984 67.0074 9.99991 73.0866 10ZM32.7146 36.9304C30.2158 37.1845 28.8171 37.6554 27.7769 38.351C26.6845 39.0807 25.7455 40.0193 25.0158 41.1117C24.3202 42.1519 23.8486 43.5518 23.5945 46.0506C23.3348 48.6045 23.3307 51.9174 23.3307 56.6667V146.667H16.6641L16.6641 56.487C16.664 51.9595 16.664 48.3069 16.962 45.3761C17.2695 42.352 17.9218 39.7278 19.4724 37.4083M32.7146 36.9304C35.2685 36.6707 38.5814 36.6667 43.3307 36.6667L32.7146 36.9304ZM43.3307 36.6667L43.1511 30L43.3307 36.6667ZM43.1511 30C38.6236 30 34.9709 29.9999 32.0402 30.2979L43.1511 30ZM32.0402 30.2979C29.0161 30.6055 26.3919 31.2577 24.0724 32.8083L32.0402 30.2979ZM24.0724 32.8083C22.2526 34.0242 20.6883 35.5885 19.4724 37.4083L24.0724 32.8083ZM135.922 32.8083C133.603 31.2577 130.979 30.6055 127.955 30.2979L135.922 32.8083ZM127.955 30.2979C125.024 29.9999 121.371 30 116.844 30L127.955 30.2979ZM116.844 30H116.664H116.844ZM116.664 30V36.6667V30ZM116.664 36.6667C121.413 36.6667 124.726 36.6707 127.28 36.9304L116.664 36.6667ZM127.28 36.9304C129.779 37.1845 131.178 37.6554 132.218 38.351L127.28 36.9304ZM135.922 32.8083C137.742 34.0242 139.306 35.5874 140.522 37.4072C142.073 39.727 142.725 42.3516 143.033 45.3761C143.331 48.3068 143.331 51.9594 143.331 56.4868V146.667H136.664V56.6667C136.664 51.9174 136.66 48.6045 136.4 46.0506C136.146 43.5518 135.675 42.153 134.98 41.1128C134.25 40.0205 133.31 39.0807 132.218 38.351" fill="#BE111D"/>
<path d="M19.4724 37.4083L32.7146 36.9304C35.2685 36.6707 38.5814 36.6667 43.3307 36.6667L43.1511 30L32.0402 30.2979L24.0724 32.8083L19.4724 37.4083Z" fill="#BE111D"/>
<path d="M135.922 32.8083L127.955 30.2979L116.844 30H116.664V36.6667C121.413 36.6667 124.726 36.6707 127.28 36.9304C129.779 37.1845 131.178 37.6554 132.218 38.351L135.922 32.8083Z" fill="#BE111D"/>
<path fill-rule="evenodd" clip-rule="evenodd" d="M33.3359 53.3333C33.3359 51.4924 34.8283 50 36.6693 50H46.6693C48.5102 50 50.0026 51.4924 50.0026 53.3333C50.0026 55.1743 48.5102 56.6667 46.6693 56.6667H36.6693C34.8283 56.6667 33.3359 55.1743 33.3359 53.3333ZM110.003 53.3333C110.003 51.4924 111.495 50 113.336 50H123.336C125.177 50 126.669 51.4924 126.669 53.3333C126.669 55.1743 125.177 56.6667 123.336 56.6667H113.336C111.495 56.6667 110.003 55.1743 110.003 53.3333ZM33.3359 73.3333C33.3359 71.4924 34.8283 70 36.6693 70H46.6693C48.5102 70 50.0026 71.4924 50.0026 73.3333C50.0026 75.1743 48.5102 76.6667 46.6693 76.6667H36.6693C34.8283 76.6667 33.3359 75.1743 33.3359 73.3333ZM110.003 73.3333C110.003 71.4924 111.495 70 113.336 70H123.336C125.177 70 126.669 71.4924 126.669 73.3333C126.669 75.1743 125.177 76.6667 123.336 76.6667H113.336C111.495 76.6667 110.003 75.1743 110.003 73.3333ZM63.3359 80C63.3359 78.159 64.8283 76.6667 66.6693 76.6667H93.3359C95.1769 76.6667 96.6693 78.159 96.6693 80C96.6693 81.841 95.1769 83.3333 93.3359 83.3333H66.6693C64.8283 83.3333 63.3359 81.841 63.3359 80ZM33.3359 93.3333C33.3359 91.4924 34.8283 90 36.6693 90H46.6693C48.5102 90 50.0026 91.4924 50.0026 93.3333C50.0026 95.1743 48.5102 96.6667 46.6693 96.6667H36.6693C34.8283 96.6667 33.3359 95.1743 33.3359 93.3333ZM110.003 93.3333C110.003 91.4924 111.495 90 113.336 90H123.336C125.177 90 126.669 91.4924 126.669 93.3333C126.669 95.1743 125.177 96.6667 123.336 96.6667H113.336C111.495 96.6667 110.003 95.1743 110.003 93.3333ZM63.3359 100C63.3359 98.159 64.8283 96.6667 66.6693 96.6667H93.3359C95.1769 96.6667 96.6693 98.159 96.6693 100C96.6693 101.841 95.1769 103.333 93.3359 103.333H66.6693C64.8283 103.333 63.3359 101.841 63.3359 100ZM80.0026 123.333C81.8436 123.333 83.3359 124.826 83.3359 126.667V146.667C83.3359 148.508 81.8436 150 80.0026 150C78.1617 150 76.6693 148.508 76.6693 146.667V126.667C76.6693 124.826 78.1617 123.333 80.0026 123.333Z" fill="#BE111D"/>
<path fill-rule="evenodd" clip-rule="evenodd" d="M80.0026 30C81.8436 30 83.3359 31.4924 83.3359 33.3333V43.3333H93.3359C95.1769 43.3333 96.6693 44.8257 96.6693 46.6667C96.6693 48.5076 95.1769 50 93.3359 50H83.3359V60C83.3359 61.841 81.8436 63.3333 80.0026 63.3333C78.1617 63.3333 76.6693 61.841 76.6693 60V50H66.6693C64.8283 50 63.3359 48.5076 63.3359 46.6667C63.3359 44.8257 64.8283 43.3333 66.6693 43.3333H76.6693V33.3333C76.6693 31.4924 78.1617 30 80.0026 30Z" fill="#BE111D"/>
</svg>
