<svg width="84" height="84" viewBox="0 0 84 84" fill="none" xmlns="http://www.w3.org/2000/svg">
<path fill-rule="evenodd" clip-rule="evenodd" d="M16.9715 16.6226C19.9684 13.4494 23.9833 12.25 28 12.25C30.8315 12.25 33.6507 13.1567 36.1525 14.253C38.2014 15.1508 40.1556 16.232 41.7987 17.1412C41.8663 17.1786 41.9334 17.2157 42 17.2526C42.0789 17.2089 42.1586 17.1648 42.2389 17.1203C43.8783 16.2128 45.8166 15.1398 47.8469 14.2493C50.3454 13.1534 53.1589 12.25 56 12.25C60.0085 12.25 64.0211 13.4641 67.0185 16.6401C70.0065 19.8062 71.75 24.6728 71.75 31.5C71.75 48.8527 68.018 61.5687 62.0485 69.4336C60.5517 71.4255 58.0977 71.9408 55.9925 71.691C53.8753 71.4398 51.6712 70.3851 50.2925 68.6332C48.6964 66.6079 47.1506 63.095 45.5996 58.3337C45.1617 57.196 44.4963 56.1041 43.7609 55.3237C42.9783 54.4932 42.3499 54.25 42 54.25H41.9885C41.6297 54.2476 41.0074 54.4855 40.2351 55.3067C39.506 56.0819 38.844 57.1759 38.4007 58.3326C36.8498 63.0938 35.3039 66.611 33.7074 68.6367C32.33 70.3833 30.1319 71.4386 28.0157 71.6901C25.9084 71.9405 23.4594 71.423 21.9538 69.4366C15.9829 61.5719 12.25 48.8513 12.25 31.5C12.25 24.6537 13.9846 19.7851 16.9715 16.6226ZM45.7683 19.1776L53.2826 22.9348C54.1471 23.367 54.4975 24.4182 54.0652 25.2826C53.633 26.1471 52.5818 26.4975 51.7174 26.0652L41.2174 20.8152C41.1987 20.8059 41.1802 20.7962 41.1618 20.7862C40.7999 20.5887 40.43 20.3842 40.0526 20.1755C38.4136 19.2693 36.6333 18.2849 34.7478 17.4587C32.4293 16.4428 30.128 15.75 28 15.75C24.6667 15.75 21.6816 16.7328 19.516 19.0258C17.3404 21.3294 15.75 25.2108 15.75 31.5C15.75 48.4408 19.4087 60.2968 24.7423 67.3212L24.7432 67.3224C25.2431 67.982 26.2416 68.3763 27.6028 68.2145C28.9551 68.0539 30.2468 67.3727 30.9589 66.4698C32.1437 64.9662 33.5404 61.96 35.0858 57.2087C35.0944 57.1823 35.1036 57.1561 35.1134 57.1302C35.6922 55.6021 36.5848 54.0793 37.6854 52.9089C38.7495 51.7775 40.2391 50.7406 42.0059 50.75L42.0115 50.75L42 50.75L42.0059 50.75C43.7604 50.7523 45.2474 51.7978 46.3081 52.9234C47.4091 54.0917 48.3085 55.6092 48.8858 57.1283C48.8959 57.1548 48.9054 57.1817 48.9142 57.2087C50.4595 61.9599 51.8564 64.9631 53.0415 66.4668L53.0425 66.4681C53.7534 67.372 55.0487 68.0545 56.4048 68.2154C57.7719 68.3776 58.7635 67.9802 59.2515 67.3295L59.2577 67.3212C64.5913 60.2968 68.25 48.4442 68.25 31.5C68.25 25.2372 66.6545 21.3538 64.473 19.0424C62.3009 16.7409 59.3135 15.75 56 15.75C53.8606 15.75 51.5641 16.4408 49.2527 17.4546C48.0452 17.9842 46.8816 18.579 45.7683 19.1776Z" fill="#BE111D"/>
</svg>
